
<svg version="1.0" xmlns="http://www.w3.org/2000/svg"
 width="1080.000000pt" height="1080.000000pt" viewBox="0 0 1080.000000 1080.000000"
 preserveAspectRatio="xMidYMid meet">

<g transform="translate(0.000000,1080.000000) scale(0.100000,-0.100000)"
fill="#000000" stroke="none">
<path d="M0 5400 l0 -5400 75 0 75 0 0 888 c0 996 0 9560 0 9775 l0 137 -75 0
-75 0 0 -5400z"/>
<path d="M250 10785 c16 -19 111 -17 118 3 3 9 -14 12 -63 12 -60 0 -66 -2
-55 -15z"/>
<path d="M416 10784 c-3 -9 -6 -16 -6 -18 0 -1 25 -1 56 0 37 1 61 7 72 18 15
15 11 16 -50 16 -51 0 -67 -4 -72 -16z"/>
<path d="M650 10782 c0 -11 -19 -37 -42 -60 -31 -31 -38 -44 -31 -54 8 -9 7
-17 -3 -26 -8 -7 -14 -9 -14 -4 0 5 -10 14 -22 20 -13 6 -17 11 -10 11 6 1 12
12 12 26 0 25 -2 26 -57 23 -46 -2 -59 -7 -61 -20 -2 -12 6 -21 23 -28 32 -12
30 -40 -3 -55 -12 -5 -24 -17 -27 -25 -6 -18 -45 -45 -45 -30 0 5 5 10 10 10
16 0 30 43 18 55 -7 7 -12 6 -15 -1 -3 -8 -16 -9 -45 -2 -27 6 -45 5 -52 -2
-5 -5 -18 -10 -28 -10 -16 0 -18 -11 -18 -115 0 -129 1 -130 86 -123 37 3 39
5 42 41 2 20 8 37 13 37 15 0 39 -26 39 -43 0 -22 23 -37 48 -30 17 4 21 2 16
-10 -3 -8 0 -18 5 -22 20 -11 1 -25 -35 -25 l-34 0 -1 -212 c-1 -117 -1 -275
0 -352 1 -132 0 -139 -21 -158 -22 -19 -22 -20 -3 -16 16 2 20 -3 20 -27 0
-22 -5 -31 -20 -33 -17 -2 -20 3 -22 42 -1 28 3 46 11 49 16 7 27 45 15 53 -5
3 -9 0 -9 -5 0 -6 -4 -11 -9 -11 -6 0 -10 84 -10 208 0 114 0 264 -1 333 l0
127 -42 4 c-24 2 -53 2 -65 0 l-23 -4 0 -604 c0 -476 3 -604 13 -605 6 -1 36
-3 65 -5 45 -2 52 0 52 16 0 12 -8 20 -22 22 -17 2 -23 10 -23 28 0 18 6 26
23 28 22 3 22 6 22 146 0 115 3 146 15 156 13 10 15 9 15 -8 0 -12 5 -24 10
-27 6 -4 10 -59 10 -133 0 -119 1 -128 21 -141 17 -10 23 -10 29 -1 13 21 45
7 45 -20 0 -22 -5 -25 -35 -26 -57 -1 -59 -2 -62 -46 l-3 -43 -84 -3 c-47 -1
-86 -4 -88 -5 -2 -3 -5 -6607 -3 -7414 l0 -42 88 -3 87 -3 7 -54 c8 -66 22
-84 44 -53 8 12 24 22 35 22 16 0 19 -7 19 -44 0 -35 -4 -45 -19 -49 -13 -3
-21 1 -24 15 -4 14 -12 19 -29 16 -22 -3 -23 -8 -26 -88 -2 -46 -8 -90 -14
-97 -7 -9 -7 -13 1 -13 14 0 15 -67 1 -75 -7 -4 -7 -12 -2 -18 4 -7 9 -54 11
-104 1 -76 -1 -93 -13 -93 -8 0 -17 -4 -20 -9 -3 -5 2 -8 12 -7 27 2 29 -50 2
-57 -18 -5 -21 -2 -17 14 3 10 1 22 -4 25 -12 7 -12 44 1 44 17 0 33 41 21 53
-9 9 -14 8 -21 -3 -5 -8 -9 68 -9 195 0 116 -1 215 -1 222 0 6 -10 13 -22 15
-32 4 -32 52 -1 56 13 2 23 10 23 17 0 16 -52 28 -96 23 l-29 -3 -3 -607 -2
-606 55 -4 c30 -1 60 -1 65 0 6 2 10 99 10 255 0 213 7 300 22 277 26 -40 28
-63 28 -290 l0 -240 25 0 c14 0 25 3 26 8 0 4 1 24 3 45 2 20 6 41 10 45 13
13 36 -31 36 -69 0 -30 3 -36 18 -33 9 3 34 -2 55 -11 36 -15 37 -17 37 -68 0
-71 -9 -97 -31 -97 -16 0 -19 8 -19 59 0 58 0 59 -32 65 -17 3 -52 3 -78 0
-41 -5 -47 -9 -56 -40 -6 -18 -9 -36 -6 -39 7 -7 9 -30 13 -118 2 -56 5 -67
20 -67 9 0 20 6 22 13 4 9 6 9 6 0 1 -16 41 -17 41 -2 0 6 8 8 20 4 24 -8 60
11 60 30 0 19 16 19 24 0 3 -8 12 -15 19 -15 8 0 20 -7 27 -15 7 -9 29 -15 51
-15 l39 0 1 88 c1 48 0 98 -1 110 -1 14 8 33 21 45 15 15 18 22 10 25 -8 3
-17 -2 -22 -9 -5 -8 -9 81 -9 214 0 175 3 227 13 227 9 0 9 2 -1 8 -9 7 -12
41 -10 138 l3 129 23 -36 c22 -36 22 -37 22 -488 l0 -451 2869 0 c2286 0 2870
3 2874 13 4 10 6 10 6 0 1 -10 345 -13 1686 -13 l1684 0 6 33 c3 17 5 41 5 52
-6 80 -3 730 3 769 8 46 9 47 23 27 12 -17 15 -62 14 -238 -1 -120 -1 -314 -1
-430 l1 -213 46 0 c33 0 51 5 60 17 13 17 13 17 14 0 0 -28 33 -17 40 13 l6
25 8 -29 c5 -22 10 -26 19 -17 6 6 38 11 72 11 35 0 66 5 73 12 10 10 17 10
32 0 11 -6 47 -12 79 -12 l60 0 3 113 c2 61 0 116 -4 121 -7 9 -39 16 -88 18
-19 1 -25 7 -26 25 -2 22 1 23 53 21 55 -2 79 11 68 39 -2 7 5 17 15 23 11 6
20 19 20 30 0 10 6 20 12 23 8 2 9 8 4 13 -5 5 -11 4 -13 -3 -5 -15 -33 -17
-33 -3 0 6 5 10 11 10 7 0 9 9 6 21 -7 25 2 51 14 43 22 -13 6 17 -16 32 -24
15 -25 21 -25 105 0 73 3 90 17 98 17 9 17 10 1 23 -16 12 -18 36 -15 281 2
243 4 270 20 281 9 7 17 20 17 28 0 8 5 19 12 26 9 9 6 18 -15 40 l-27 29 25
11 c42 19 32 35 -35 59 -43 16 -85 16 -111 3 -26 -14 -24 -27 6 -34 34 -9 36
-53 3 -58 -21 -3 -23 -9 -26 -75 -2 -58 -6 -71 -17 -66 -9 3 -15 -1 -15 -8 0
-11 -3 -11 -10 1 -14 22 -12 27 13 34 21 6 22 7 3 21 -13 10 -20 28 -20 52 -1
37 -2 38 -37 39 -45 1 -59 10 -59 35 0 18 5 20 64 23 14 1 22 13 30 46 l11 45
81 3 81 3 6 49 c6 49 41 98 71 101 6 1 0 4 -14 8 -14 4 -30 4 -37 -1 -6 -5
-13 -5 -16 -1 -2 4 -5 94 -6 200 -2 175 -1 192 16 202 17 10 17 12 1 21 -24
14 -25 88 -2 97 8 3 13 12 10 19 -3 8 -2 14 3 14 5 0 11 9 14 21 4 15 0 23
-14 26 -10 3 -19 9 -19 14 0 12 7 11 30 -3 31 -20 38 2 7 24 -32 23 -34 34 -8
43 24 7 17 42 -9 50 -22 7 -31 43 -26 105 2 25 5 54 5 66 1 12 15 28 39 42 35
20 35 22 12 23 -14 1 -32 2 -40 3 -13 1 -15 34 -17 226 -3 221 1 291 15 289
20 -3 25 2 12 12 -11 8 -12 12 -2 16 6 2 12 11 12 18 0 8 7 21 17 30 15 16 14
18 -12 41 -19 16 -25 29 -21 41 6 15 8 15 16 3 7 -12 10 -9 10 12 0 17 -6 29
-19 33 -23 7 -29 31 -27 115 2 71 23 109 61 111 17 1 16 2 -5 8 -14 4 -28 3
-31 -2 -20 -29 -25 25 -27 252 -2 220 0 252 15 266 14 14 14 18 2 26 -11 7
-11 9 4 9 10 0 17 8 17 19 0 10 7 24 16 31 13 12 12 16 -10 35 -28 24 -34 45
-12 45 8 0 16 6 19 14 6 15 -11 36 -29 36 -6 0 -14 10 -17 21 -10 36 4 161 19
176 21 21 18 42 -6 36 -19 -5 -19 1 -17 269 2 246 4 276 20 292 22 22 22 32 0
45 -10 5 -15 12 -12 16 4 3 14 -1 23 -10 9 -9 21 -13 27 -9 7 4 2 14 -15 29
-31 27 -32 29 -5 56 l22 22 -32 13 -32 14 3 90 c2 60 6 90 14 90 12 0 24 22
24 43 0 8 -4 7 -9 -2 -26 -40 -30 7 -28 275 2 249 4 277 20 288 21 16 22 32 2
40 -8 3 -15 10 -15 16 0 7 6 8 19 0 32 -16 33 -12 7 17 l-25 27 21 23 c23 25
23 25 -9 42 -21 11 -22 18 -21 98 2 69 6 91 20 105 23 23 23 36 1 34 -17 -1
-18 19 -19 273 -1 260 -1 274 17 278 23 6 27 53 4 53 -8 0 -15 5 -15 10 0 14
13 13 28 -2 6 -6 15 -9 18 -5 4 4 -3 16 -15 26 -16 14 -21 26 -16 40 3 12 11
21 16 21 19 0 8 21 -16 30 -24 9 -25 13 -25 96 0 71 3 89 17 99 17 12 17 14 1
32 -15 17 -17 47 -15 287 2 224 4 270 17 280 8 6 21 22 28 35 12 20 11 25 -5
37 -10 7 -21 14 -25 14 -17 0 -7 30 14 45 23 16 23 16 4 30 -11 8 -24 15 -28
15 -5 0 -8 39 -7 86 1 70 5 90 20 105 24 24 24 41 2 37 -17 -3 -18 16 -18 270
0 249 2 275 18 286 9 7 17 20 17 29 0 8 5 17 12 19 8 3 4 12 -10 26 -26 26
-28 47 -7 56 23 8 18 31 -10 44 -24 11 -25 16 -25 95 0 70 3 85 20 100 11 9
20 24 20 33 0 13 -3 14 -13 5 -8 -6 -17 -8 -21 -4 -3 4 -6 123 -6 265 1 235 3
258 18 258 15 0 15 2 2 10 -13 9 -13 12 3 24 9 7 17 20 17 29 0 8 6 17 13 20
8 3 3 14 -16 34 -23 25 -26 31 -13 36 9 4 23 4 31 1 19 -8 19 6 -1 34 -8 12
-23 22 -33 22 -16 0 -18 10 -20 72 -1 40 -4 74 -6 77 -3 2 -28 6 -56 9 -37 3
-54 1 -60 -9 -5 -8 -9 -97 -9 -198 0 -101 -3 -181 -7 -178 -3 4 -12 2 -20 -4
-10 -9 -13 -7 -13 10 0 11 5 21 10 21 14 0 12 28 -2 33 -9 2 -13 34 -14 108 0
57 -1 128 -2 157 l-2 52 -82 0 c-92 0 -119 9 -100 33 10 12 9 16 -8 20 -17 4
-20 13 -20 56 0 28 5 51 10 51 6 0 16 12 23 28 11 25 12 21 15 -48 2 -41 8
-77 14 -81 10 -6 139 -1 146 5 1 2 3 52 3 111 0 77 -3 110 -12 116 -10 6 -9
12 5 28 10 11 16 27 12 36 -7 19 10 55 25 55 5 0 15 -13 20 -30 11 -29 13 -30
70 -30 56 0 59 1 59 25 0 21 -5 25 -27 25 -45 0 -108 21 -93 30 7 4 -9 5 -35
2 l-47 -5 17 27 17 26 -66 0 c-36 0 -66 -4 -66 -9 0 -11 25 -21 56 -21 13 0
24 -3 24 -6 0 -9 -44 -43 -56 -44 -26 0 -32 -60 -6 -60 16 -1 16 -1 -1 -11
-11 -7 -22 -7 -30 -1 -19 14 -70 25 -62 12 3 -5 0 -10 -9 -10 -8 0 -16 -5 -18
-12 -9 -27 -28 6 -28 49 l0 46 -36 -6 c-20 -3 -38 -8 -40 -10 -2 -2 -5 -42 -6
-90 -1 -47 -5 -92 -10 -99 -5 -8 -8 -1 -8 20 0 23 -5 32 -16 32 -14 0 -15 7
-10 44 4 24 4 56 0 70 -6 24 -10 26 -59 26 -60 0 -85 17 -85 56 l0 24 -140 0
-140 0 -1 -142 c-2 -250 -6 -1490 -5 -1558 4 -219 -3 -414 -16 -422 -11 -7
-11 -9 0 -16 16 -11 19 -75 4 -80 -7 -2 -6 -14 3 -36 21 -50 17 -763 -5 -776
-8 -5 -17 -7 -22 -4 -11 7 -7 1047 5 1062 6 8 6 16 -1 25 -10 11 -11 212 -12
1630 l0 317 -1070 0 -1070 0 0 -69 c0 -38 -7 -88 -15 -112 -10 -28 -12 -45 -5
-47 10 -4 14 -32 4 -32 -3 0 -12 6 -20 14 -10 11 -14 43 -14 130 l0 116 -1900
0 -1899 0 -3 -87 c-2 -61 -7 -87 -15 -86 -16 3 -13 -38 5 -60 20 -23 6 -35
-16 -14 -9 10 -17 32 -18 50 0 18 -1 69 -2 115 l-2 82 -1070 0 -1070 0 0 -89
c0 -62 -4 -91 -13 -94 -9 -4 -9 -6 1 -6 15 -1 16 -48 1 -53 -9 -3 -9 -9 0 -25
8 -15 11 -140 11 -418 0 -372 -1 -396 -17 -393 -17 3 -18 29 -21 358 -2 307 0
355 13 363 19 10 19 36 0 43 -12 5 -15 32 -15 160 l0 154 -145 0 -145 0 0 -30
c0 -37 -23 -50 -89 -50 l-51 0 -1 -412 c-1 -227 0 -426 1 -442 1 -16 -2 -26
-8 -22 -6 3 -8 16 -5 27 5 18 3 20 -15 15 l-21 -7 -1 422 c-1 449 -1 449 -49
449 -12 0 -21 5 -21 10 0 6 16 10 35 10 24 0 35 5 35 15 0 11 -12 15 -50 15
-42 0 -50 -3 -50 -18z m20 -89 c0 -10 -4 -14 -8 -8 -4 6 -11 13 -16 18 -5 4
-2 7 7 7 10 0 17 -8 17 -17z m-54 -77 c11 -11 14 -45 14 -140 0 -143 -6 -156
-71 -156 -35 0 -39 3 -39 25 0 17 5 25 18 25 35 0 42 21 42 126 0 94 5 134 17
134 2 0 11 -6 19 -14z m9524 -31 c0 -19 -2 -35 -4 -35 -2 0 -6 16 -8 35 -2 19
0 35 4 35 4 0 8 -16 8 -35z m-9724 -93 c-4 -3 -11 -1 -17 5 -8 8 -7 18 3 34
l13 24 3 -28 c2 -16 1 -31 -2 -35z m9543 5 c7 -10 11 -127 11 -387 0 -206 3
-377 7 -381 5 -4 31 -9 58 -11 36 -2 50 -7 50 -18 0 -11 -12 -14 -47 -13 -113
2 -107 1 -107 31 0 15 -3 190 -6 390 -7 347 -6 362 12 363 10 0 13 3 6 6 -15
5 -18 33 -4 33 5 0 14 -6 20 -13z m-6499 -171 c0 -114 -3 -156 -12 -159 -10
-3 -10 -9 0 -26 15 -26 18 -1226 2 -1281 -5 -19 -6 -37 -2 -41 5 -6 186 -17
307 -19 36 -1 319 21 323 24 2 3 -8 16 -23 30 -21 20 -24 26 -11 26 9 0 16 6
16 14 0 8 9 24 19 37 19 24 20 24 34 5 12 -17 12 -22 1 -34 -15 -15 -19 -32
-6 -32 32 1 74 75 42 75 -8 0 -19 6 -24 13 -10 17 50 82 75 82 10 0 21 9 24
20 11 33 323 334 353 340 20 4 27 11 26 27 0 16 5 21 23 19 13 -2 29 -11 37
-21 14 -20 36 -13 36 12 0 9 -3 14 -6 10 -8 -7 -34 17 -34 32 0 6 5 11 10 11
6 0 10 8 10 17 0 18 28 53 43 53 5 0 7 -7 3 -15 -3 -9 0 -15 10 -15 12 0 10
-5 -7 -20 -23 -19 -23 -21 -6 -34 9 -7 17 -18 17 -25 0 -8 6 -8 20 1 26 17 25
28 -2 29 l-23 0 22 11 c26 13 27 49 1 60 -10 4 -18 14 -18 22 0 15 71 76 89
76 6 0 11 7 11 15 0 8 46 61 103 117 190 190 233 228 260 228 16 0 26 7 30 20
7 27 34 25 57 -2 l19 -23 7 33 c5 23 12 32 26 32 10 0 16 -4 13 -10 -8 -13 -2
-13 30 2 33 15 32 28 -2 29 -25 0 -26 1 -8 9 11 5 23 9 27 9 8 1 308 -297 345
-342 12 -16 19 -35 16 -46 -4 -17 -1 -19 18 -16 24 5 59 -19 59 -41 0 -7 9
-16 21 -19 11 -4 25 -18 31 -31 6 -13 16 -24 21 -24 14 0 36 -32 37 -52 0 -10
8 -18 18 -18 16 -1 16 -1 0 -11 -10 -5 -18 -20 -18 -31 0 -21 1 -21 28 5 l28
27 247 -248 c136 -137 247 -253 247 -258 0 -5 14 -22 30 -37 17 -16 30 -35 30
-42 0 -7 14 -18 30 -25 17 -7 46 -29 65 -49 l35 -36 198 -2 c207 -2 319 -10
328 -24 5 -9 44 9 55 25 4 4 3 24 -2 45 -11 49 -11 198 0 205 5 4 7 23 4 44
-2 20 -7 235 -10 476 -4 402 -3 441 12 452 14 11 14 13 2 21 -12 6 -14 17 -7
51 4 25 4 42 -2 42 -6 0 -8 56 -7 140 2 77 7 140 11 140 4 0 10 11 14 25 15
61 24 14 24 -128 0 -109 -4 -157 -12 -166 -10 -11 -10 -14 0 -18 16 -6 16 -35
0 -52 -10 -11 -10 -12 -1 -7 19 11 18 -1189 -1 -1206 -14 -13 -9 -49 8 -60 6
-4 114 -7 240 -7 157 0 233 -4 242 -12 10 -8 14 -8 14 -1 0 8 42 10 137 6
l138 -5 30 -34 c24 -27 34 -32 51 -25 23 9 38 36 24 45 -5 3 -12 0 -16 -6 -5
-8 -9 -7 -15 2 -4 7 -6 17 -3 21 6 9 460 10 505 1 19 -4 34 -13 37 -25 3 -15
7 -16 18 -7 22 18 29 1 9 -21 -16 -18 -16 -20 -2 -20 10 0 17 -7 17 -16 0 -13
-3 -14 -14 -5 -12 10 -15 7 -14 -18 1 -19 6 -31 15 -31 16 0 17 -21 1 -55 -8
-17 -8 -29 -2 -33 16 -11 14 -140 -2 -146 -19 -7 -18 -26 1 -26 14 0 16 -33
14 -282 -1 -195 -5 -287 -13 -297 -8 -11 -8 -15 2 -18 6 -3 12 -17 12 -33 0
-16 -6 -30 -12 -33 -10 -3 -10 -9 -2 -28 18 -38 16 -146 -3 -153 -15 -6 -15
-8 0 -19 14 -10 17 -39 17 -207 1 -262 1 -260 -7 -259 -23 4 -33 -3 -33 -21 0
-25 9 -25 26 -2 12 15 13 10 14 -37 0 -47 -2 -52 -15 -41 -9 7 -19 9 -23 5 -4
-4 -1 -10 7 -13 10 -3 10 -6 1 -12 -7 -4 -9 -13 -5 -19 5 -9 10 -9 21 0 12 9
14 5 14 -25 0 -20 -4 -36 -10 -36 -5 0 -10 -6 -10 -14 0 -7 -9 -16 -20 -19
-11 -3 -20 -13 -20 -23 0 -16 3 -15 23 4 13 12 26 22 30 22 12 0 8 -145 -5
-158 -9 -9 -9 -12 0 -12 8 0 11 -61 9 -232 -2 -230 -2 -233 -23 -236 -16 -2
-20 -8 -17 -23 5 -20 23 -27 23 -9 0 6 5 10 10 10 6 0 10 -21 10 -47 0 -37 -3
-44 -12 -35 -17 17 -33 15 -18 -3 9 -10 9 -15 1 -15 -6 0 -11 -5 -11 -11 0 -6
9 -9 20 -6 34 9 26 -45 -12 -82 -33 -32 -33 -57 0 -28 10 10 21 17 24 17 4 0
7 -36 7 -80 1 -66 -2 -78 -14 -74 -8 4 -15 1 -15 -5 0 -6 7 -11 15 -11 14 0
16 -40 14 -334 -1 -243 -4 -336 -12 -339 -9 -3 -9 -7 -1 -18 7 -8 11 -41 10
-74 -1 -51 -4 -60 -18 -57 -13 2 -18 -4 -18 -18 0 -12 -23 -46 -51 -76 -49
-51 -77 -69 -66 -41 3 6 8 21 12 32 5 16 5 17 -4 5 -7 -11 -10 13 -10 85 0 67
4 102 12 107 9 6 9 8 0 8 -16 0 -18 622 -2 651 7 13 6 19 -1 19 -7 0 -10 22
-8 62 2 52 7 67 28 86 l25 23 -27 -5 c-28 -6 -39 7 -15 18 10 5 10 7 0 12 -16
7 -19 639 -3 649 6 3 10 11 10 16 0 6 -4 7 -10 4 -6 -4 -9 22 -9 70 1 71 5 80
32 76 4 0 7 7 7 16 0 13 -3 14 -12 5 -7 -7 -16 -12 -20 -12 -13 0 -9 28 5 34
10 5 10 7 0 12 -19 8 -19 634 0 653 8 10 9 12 0 7 -9 -5 -12 51 -13 240 0 135
-3 250 -6 255 -3 5 -45 9 -95 9 -53 0 -89 4 -89 10 0 6 8 10 18 10 10 0 27 7
38 15 28 21 54 19 54 -6 0 -18 4 -20 33 -14 17 4 35 9 40 12 11 7 9 293 -3
293 -5 0 -10 7 -10 17 0 15 -1 15 -18 0 -10 -10 -26 -17 -35 -17 -11 0 -17 -8
-17 -22 -1 -22 -1 -22 -12 -4 -6 11 -23 30 -37 42 l-26 22 -18 -28 c-9 -15
-20 -52 -23 -81 -7 -63 -22 -132 -23 -106 -1 18 -26 23 -36 7 -9 -15 -35 -12
-35 5 0 9 -6 12 -15 9 -8 -4 -15 -1 -15 4 0 6 -12 17 -27 24 -17 8 -29 23 -31
38 -2 14 -10 32 -17 40 -7 8 -16 26 -20 40 -5 23 -10 25 -54 24 -69 -3 -101 5
-101 25 0 9 -5 22 -10 27 -14 14 -2 44 16 44 8 0 14 -10 14 -24 0 -14 5 -28
12 -32 19 -12 119 -14 140 -3 11 6 48 11 82 11 75 1 89 15 76 72 -4 21 -11 40
-13 43 -3 2 -31 -1 -62 -7 -31 -7 -67 -9 -78 -6 -12 3 -53 3 -90 -1 -56 -5
-70 -10 -76 -26 -7 -18 -10 -16 -29 17 -17 29 -18 36 -6 36 12 0 13 9 8 51 -6
42 -4 51 7 47 8 -3 14 -16 15 -29 3 -71 -12 -65 155 -62 83 1 152 3 154 5 2 2
5 26 6 53 l4 50 -108 3 c-83 2 -109 6 -113 17 -4 8 -10 12 -15 9 -6 -3 -27 -8
-47 -11 -62 -10 -5113 -13 -5172 -4 -38 6 -63 6 -80 -3 -22 -10 -25 -18 -27
-69 l-1 -57 86 -1 87 -2 -70 -8 c-38 -5 -75 -7 -82 -4 -15 5 -23 -18 -23 -70
0 -46 -16 -67 -31 -44 -5 8 -8 33 -7 57 l3 42 -40 2 c-22 1 -64 1 -93 0 -46
-2 -53 0 -50 15 3 15 15 18 68 20 102 4 127 11 133 35 4 12 3 26 -1 32 -4 6
-7 20 -7 31 0 19 -6 20 -150 17 -169 -3 -192 -7 -174 -28 6 -8 8 -25 5 -40 -9
-35 9 -55 44 -48 15 4 30 2 34 -4 3 -5 -7 -12 -22 -16 -41 -8 -52 -19 -57 -55
-6 -51 1 -60 53 -58 63 1 192 -10 200 -17 3 -3 20 -6 39 -6 18 0 33 -4 33 -9
0 -18 -21 -23 -49 -12 -35 15 -101 -10 -101 -38 0 -53 -104 -161 -155 -161 -8
0 -15 -4 -15 -9 0 -5 -5 -22 -10 -36 -9 -24 -11 -25 -26 -11 -9 9 -13 24 -10
34 8 25 88 81 131 93 30 8 34 13 30 32 -4 16 1 29 14 41 28 26 26 36 -7 36
-15 0 -33 5 -39 11 -8 8 -20 8 -45 0 -33 -11 -34 -13 -35 -65 -1 -63 -7 -76
-33 -76 -23 0 -38 44 -22 63 11 13 11 42 -1 53 -4 4 -7 15 -7 25 0 27 -21 34
-27 9 -3 -12 -11 -19 -19 -16 -22 8 -32 -17 -36 -88 -2 -43 -8 -71 -16 -74 -9
-3 -11 16 -10 72 0 42 -2 79 -5 82 -3 3 -21 7 -39 7 l-33 2 -3 -152 c-2 -102
0 -153 7 -153 14 0 14 -27 1 -32 -7 -2 -10 -467 -9 -1403 0 -770 1 -1409 1
-1420 0 -11 0 -89 -2 -173 l-2 -152 -38 30 c-21 17 -57 52 -79 79 -38 46 -41
53 -41 111 0 34 5 71 11 83 9 16 9 22 0 25 -15 5 -14 38 2 40 6 2 26 4 42 6
17 2 31 4 33 5 1 0 -2 11 -9 22 -6 12 -14 17 -18 12 -3 -5 -16 -12 -28 -15
-20 -5 -22 -1 -29 49 -3 29 -4 56 -2 59 9 9 43 -11 43 -25 0 -25 22 -23 27 2
6 31 -19 69 -31 48 -5 -8 -16 -11 -24 -8 -13 5 -16 47 -16 308 -1 217 2 311
11 336 10 29 10 36 -2 44 -25 16 14 34 63 30 18 -2 22 7 9 25 -9 14 -45 27
-37 14 3 -6 -1 -10 -9 -10 -9 0 -19 0 -23 0 -3 0 -8 25 -10 56 -4 50 -2 56 12
50 9 -3 21 -6 26 -6 5 0 8 -8 6 -17 -3 -28 17 -26 25 2 3 14 2 25 -3 25 -5 0
-9 7 -9 16 0 13 -3 14 -15 4 -31 -25 -45 -5 -45 65 0 46 3 64 11 59 8 -5 8 -1
0 14 -14 27 -15 488 -1 497 6 3 10 15 10 26 0 11 -4 17 -10 14 -5 -3 -10 1
-10 9 0 9 10 17 23 18 12 1 30 2 39 3 25 1 32 13 19 29 -9 10 -20 12 -40 6
-27 -8 -29 -6 -35 29 -10 61 -8 69 18 69 17 0 23 -5 19 -14 -3 -8 1 -22 8 -31
13 -14 15 -13 19 13 8 42 -8 64 -41 57 l-27 -5 -1 315 c-1 205 2 318 9 322 5
3 10 17 10 31 0 16 -4 23 -11 18 -7 -4 -10 -1 -7 7 2 7 23 18 46 24 l41 10
-19 25 c-10 14 -22 21 -26 17 -4 -4 -2 -7 4 -7 7 0 12 -4 12 -10 0 -5 -11 -10
-24 -10 -17 0 -25 6 -25 18 -1 9 -4 34 -7 55 -6 35 -5 37 19 37 21 0 25 -4 24
-24 -3 -34 15 -37 23 -5 9 32 -14 69 -31 52 -6 -6 -18 -9 -25 -6 -17 6 -20
108 -4 118 7 4 7 12 0 25 -13 25 -13 477 0 485 5 3 18 1 29 -5 13 -6 22 -7 26
0 3 5 -5 12 -17 15 -17 4 -24 14 -26 32 -2 30 12 43 46 43 25 0 29 22 7 40
-12 10 -13 16 -4 26 6 8 17 14 24 14 13 0 28 40 19 50 -3 3 -14 -6 -25 -19
-20 -25 -26 -13 -9 20 10 18 24 19 250 19 132 0 241 -4 244 -9 3 -5 14 -7 25
-4 13 3 20 -2 25 -19 l6 -23 13 25 c12 25 15 25 121 23 59 -1 110 -4 114 -7 3
-3 13 -6 23 -6 9 0 16 -6 15 -12 0 -7 4 -14 9 -16 6 -1 11 9 13 23 3 25 4 25
105 25 147 0 359 9 365 15 5 5 10 137 11 270 0 22 -2 242 -4 488 -4 392 -3
449 11 454 12 4 12 8 2 21 -20 23 -22 369 -2 376 8 3 14 15 14 26 0 11 5 20
10 20 6 0 10 -58 10 -154z m1867 -208 c-16 -39 -43 -53 -32 -17 9 28 24 49 36
49 5 0 3 -14 -4 -32z m5193 -68 c0 -5 -4 -10 -9 -10 -6 0 -13 5 -16 10 -3 6 1
10 9 10 9 0 16 -4 16 -10z m-190 -175 c0 -19 5 -35 10 -35 12 0 14 -47 2 -54
-24 -15 -39 26 -34 97 3 40 22 33 22 -8z m-9550 -35 c14 -14 20 -33 20 -65 0
-42 2 -45 28 -45 73 -1 72 2 72 -145 l0 -133 -66 -8 c-83 -8 -195 1 -206 18
-10 17 -10 159 0 176 5 7 15 10 23 7 10 -4 15 -27 17 -78 2 -40 9 -75 15 -79
15 -9 161 -8 177 2 7 4 10 40 8 101 l-3 94 -55 1 c-66 1 -110 11 -110 24 0 6
11 10 25 10 27 0 26 -2 27 93 0 26 2 47 4 47 2 0 13 -9 24 -20z m9570 -126 c0
-24 -4 -44 -10 -44 -5 0 -10 5 -10 11 0 5 -4 7 -10 4 -6 -4 -10 10 -10 34 0
36 14 55 33 44 4 -2 7 -24 7 -49z m-433 0 c2 -7 -10 -17 -27 -22 l-30 -11 0
-94 c0 -109 -2 -107 95 -107 35 0 67 -5 70 -11 4 -6 16 1 28 18 32 40 47 40
47 -2 0 -32 -3 -35 -27 -35 -16 0 -74 -2 -130 -6 -92 -6 -102 -5 -110 12 -5
11 -10 71 -12 136 -2 103 0 117 16 127 22 14 75 10 80 -5z m-8647 -53 c0 -30
-5 -51 -12 -54 -10 -4 -10 -7 0 -18 17 -18 15 -64 -3 -79 -8 -7 -15 -11 -16
-9 -5 25 -9 185 -5 195 3 8 12 14 21 14 11 0 15 -12 15 -49z m8819 -18 c10
-19 9 -23 -4 -23 -10 0 -15 9 -15 27 0 29 2 29 19 -4z m261 -219 l0 -214 25
-10 c31 -12 34 -49 5 -57 -29 -8 -25 -33 4 -33 14 0 28 -4 31 -10 3 -5 14 -10
24 -10 10 0 21 -9 24 -20 5 -20 2 -21 -71 -18 l-77 3 -3 35 c-4 38 -19 63 -33
54 -5 -3 -23 -2 -40 1 -24 5 -29 11 -27 28 2 18 11 23 46 25 31 2 42 8 43 20
0 9 2 112 3 227 2 116 4 211 4 213 1 1 11 -2 22 -8 19 -10 20 -21 20 -226z
m-9085 -10 c0 -18 -1 -34 -2 -34 -12 0 -33 53 -28 71 10 31 30 7 30 -37z m-5
-1388 c-5 -5 -10 -17 -10 -26 0 -13 1 -13 10 0 8 12 10 9 10 -13 0 -15 -9 -38
-20 -49 l-20 -22 1 634 c0 387 5 640 10 647 7 7 6 14 -1 18 -5 3 -10 26 -10
51 0 32 4 44 15 44 8 0 16 6 17 13 2 6 4 -280 5 -637 2 -427 0 -653 -7 -660z
m9260 1064 c0 -12 -8 -12 -35 0 -18 8 -17 9 8 9 15 1 27 -3 27 -9z m-8500
-321 c0 -5 4 -8 9 -5 13 9 22 -36 9 -51 -8 -11 -13 -8 -24 13 -16 31 -18 54
-4 54 6 0 10 -5 10 -11z m1057 -285 c-11 -11 -95 -15 -102 -5 -4 7 13 11 51
11 32 0 55 -3 51 -6z m4330 0 c-3 -3 -12 -4 -19 -1 -8 3 -5 6 6 6 11 1 17 -2
13 -5z m479 -3 c-7 -11 -146 -10 -146 1 0 4 34 8 76 8 42 0 73 -4 70 -9z
m-4844 -171 c32 -6 60 -16 63 -21 4 -5 27 -9 52 -9 38 0 44 2 34 14 -10 12 -8
17 8 25 24 14 49 5 50 -17 1 -9 7 -73 15 -142 19 -164 19 -180 1 -180 -8 0
-12 6 -9 15 4 9 -3 16 -21 21 -17 4 -23 9 -15 14 8 5 8 9 -3 13 -8 3 -27 31
-41 63 -14 31 -42 72 -61 90 -34 32 -35 34 -15 44 40 22 19 29 -67 25 -49 -3
-100 -8 -115 -11 -55 -11 -125 -114 -108 -158 5 -12 11 -33 14 -47 3 -15 31
-51 61 -82 30 -30 55 -60 55 -66 0 -6 8 -11 18 -11 20 0 67 -25 108 -58 21
-17 25 -25 15 -31 -10 -7 -9 -9 3 -14 8 -3 16 -1 19 6 5 17 70 -27 121 -84 79
-88 99 -152 81 -260 -9 -56 -25 -85 -70 -132 -53 -53 -115 -79 -206 -84 -65
-5 -89 -1 -158 22 -65 21 -85 24 -96 15 -8 -7 -15 -19 -15 -27 0 -10 -9 -13
-32 -11 -32 3 -33 5 -40 58 -4 30 -10 84 -12 119 -4 58 -2 66 19 83 13 10 28
18 33 18 9 0 25 -36 23 -52 0 -4 27 -36 62 -72 44 -46 73 -67 102 -75 101 -27
183 -2 234 73 37 53 40 98 12 159 -22 47 -58 84 -146 148 -93 67 -93 66 -61
96 15 14 25 28 22 31 -4 3 -13 -3 -22 -14 -15 -18 -15 -18 -11 8 4 29 -25 68
-37 49 -4 -6 -14 -7 -23 -4 -11 4 -14 2 -11 -8 3 -8 14 -14 26 -13 18 0 20 -4
15 -30 -3 -17 -7 -32 -8 -34 -2 -2 -21 9 -44 25 -35 24 -40 32 -35 56 5 26 -8
38 -21 17 -3 -5 -10 -10 -15 -10 -18 0 -60 55 -60 78 0 12 -7 25 -15 28 -11 5
-15 24 -15 79 0 41 5 77 10 80 6 3 10 15 10 26 0 10 6 19 14 19 9 0 12 7 9 19
-3 13 7 31 34 56 54 52 75 64 124 74 46 9 49 9 141 -9z m1114 -27 c9 -21 20
-49 24 -63 5 -14 25 -63 45 -110 20 -47 45 -107 55 -135 37 -104 44 -121 61
-161 10 -23 21 -54 25 -70 4 -15 13 -39 20 -53 17 -33 18 -51 2 -52 -7 0 -4
-4 7 -8 13 -5 22 -20 25 -42 4 -27 0 -38 -20 -56 l-25 -22 25 -2 c14 -1 33 -1
42 0 12 2 21 -13 34 -53 10 -31 21 -56 26 -56 4 0 8 -6 8 -14 0 -21 67 -76
101 -83 22 -4 29 -11 29 -28 0 -19 -6 -24 -42 -28 -66 -7 -311 -2 -325 6 -7 5
-13 16 -13 26 0 14 10 21 38 25 77 14 75 12 69 79 -4 49 -2 63 10 73 20 14 10
44 -17 51 -11 3 -20 12 -20 19 0 8 -3 14 -8 14 -4 0 -12 10 -17 22 -10 21 -13
22 -200 19 -104 -1 -193 -5 -197 -9 -8 -8 -65 -143 -78 -185 -12 -39 11 -73
55 -81 39 -8 54 -35 29 -53 -19 -14 -141 -17 -231 -7 -46 6 -53 10 -53 28 0
16 10 25 35 35 30 10 40 24 76 99 23 48 66 150 96 227 29 77 76 196 103 265
26 69 65 168 85 220 65 172 79 200 92 200 7 0 20 -17 29 -37z m2582 26 c31
-10 52 -39 29 -39 -8 0 -6 -4 3 -10 22 -14 40 -12 40 5 0 9 6 12 15 9 21 -8
19 -36 -5 -57 -11 -9 -20 -12 -20 -6 0 6 -7 8 -16 5 -8 -3 -28 3 -43 15 -15
11 -53 24 -84 28 -30 4 -62 13 -70 20 -11 8 -16 9 -19 1 -2 -6 -18 -12 -36
-12 -17 -1 -32 -5 -32 -9 0 -5 -22 -20 -49 -33 -53 -28 -94 -81 -132 -171 -12
-30 -26 -52 -30 -49 -4 2 -11 -1 -15 -7 -3 -6 -1 -15 6 -19 10 -6 10 -18 0
-56 -6 -27 -11 -86 -10 -131 1 -57 -3 -90 -15 -112 -14 -29 -14 -31 2 -31 13
0 14 -3 5 -12 -17 -17 -15 -26 4 -24 11 1 22 -15 34 -49 23 -68 64 -144 97
-181 16 -17 59 -46 96 -63 61 -29 74 -32 125 -26 64 8 165 52 203 88 13 13 33
41 44 63 18 35 23 39 54 36 19 -2 43 -12 53 -22 24 -22 17 -37 -39 -93 -110
-108 -196 -142 -351 -135 -91 3 -106 7 -176 41 -76 38 -125 81 -175 154 -30
44 -31 48 -34 131 -2 44 0 62 9 62 7 0 15 -8 17 -17 3 -10 5 -3 6 14 1 31 -2
33 -39 39 -23 4 -44 14 -49 23 -13 25 2 66 25 66 28 1 46 15 40 31 -3 9 1 14
12 14 16 1 16 1 0 11 -23 13 -23 27 -1 31 14 3 11 8 -15 26 -25 18 -32 20 -32
8 0 -8 4 -17 9 -20 12 -8 2 -46 -12 -46 -7 0 -7 -4 1 -12 20 -20 13 -28 -14
-16 -24 11 -25 15 -18 62 3 28 11 54 16 57 5 3 10 10 10 15 1 22 12 35 24 30
8 -3 14 1 14 9 0 8 -9 15 -20 15 -29 0 -26 30 11 102 43 84 139 183 213 219
33 16 68 29 77 29 29 0 11 -28 -19 -33 l-27 -3 25 -11 c18 -8 26 -7 29 1 14
41 71 55 106 26 20 -17 32 -5 15 15 -11 13 -6 15 42 15 30 0 69 -5 86 -11z
m-1496 -18 c19 -7 28 -7 30 1 9 27 453 17 481 -11 6 -6 11 -60 11 -133 l1
-123 -24 0 c-19 0 -27 8 -38 39 -9 27 -10 43 -3 50 14 14 12 26 -4 26 -8 0
-23 15 -34 34 l-21 35 24 15 c14 9 31 16 40 16 8 0 15 5 15 10 0 6 0 13 0 18
0 4 -9 8 -20 8 -11 1 -20 -3 -20 -7 0 -5 -9 -9 -19 -9 -15 0 -18 -5 -13 -22 5
-21 4 -21 -71 -15 -42 4 -97 4 -122 0 l-45 -6 0 -173 c0 -105 -4 -175 -10
-179 -7 -4 -7 -12 0 -25 16 -30 12 -131 -6 -151 -10 -11 -13 -25 -9 -40 5 -15
10 -18 15 -10 4 7 9 -49 12 -123 7 -166 13 -178 99 -203 54 -16 59 -20 57 -43
l-3 -25 -207 -3 c-197 -2 -208 -1 -218 17 -12 24 10 51 41 51 60 0 100 50 112
142 4 27 15 56 26 67 16 16 19 30 16 61 -2 22 1 40 6 40 5 0 9 -10 9 -22 0
-27 9 -18 15 15 4 18 -1 29 -19 41 -14 9 -32 13 -40 10 -13 -5 -15 11 -15 105
0 74 3 111 10 111 8 0 8 4 2 13 -5 6 -11 82 -12 167 -1 85 -6 158 -9 161 -12
11 -102 19 -102 9 0 -5 -16 -8 -36 -6 -59 4 -94 -27 -129 -116 -28 -72 -32
-77 -57 -76 l-28 2 0 87 c0 47 3 107 6 132 6 44 8 46 43 49 67 7 236 0 263
-11z m2323 9 c3 -5 -1 -10 -10 -10 -9 0 -13 5 -10 10 3 6 8 10 10 10 2 0 7 -4
10 -10z m-201 -16 c9 -24 7 -44 -5 -44 -6 0 -9 7 -5 15 3 8 -3 19 -14 25 -27
15 -33 12 -27 -10 4 -15 0 -20 -14 -20 -19 0 -27 29 -12 43 13 14 71 7 77 -9z
m81 7 c-6 -5 -22 -13 -37 -16 -22 -6 -28 -4 -28 9 0 12 10 16 37 16 23 0 33
-4 28 -9z m71 -6 c4 -10 20 -15 44 -15 21 0 43 7 50 15 7 8 16 15 21 15 14 0
10 -30 -3 -30 -8 -1 -6 -6 5 -14 25 -19 22 -23 -29 -31 -54 -8 -66 -29 -65
-122 0 -49 -3 -63 -14 -63 -19 0 -19 -9 -1 -51 8 -19 13 -53 12 -77 -1 -24 1
-45 5 -48 4 -2 5 -13 2 -23 -5 -21 26 -44 49 -36 31 10 178 14 178 4 0 -6 -4
-7 -10 -4 -5 3 -10 2 -10 -4 0 -5 4 -12 9 -16 23 -13 88 -124 80 -136 -6 -10
-11 -10 -24 1 -14 12 -16 12 -15 -1 4 -27 0 -49 -10 -49 -5 0 -7 6 -4 13 3 8
-5 25 -16 38 -23 26 -23 23 -4 -38 4 -14 2 -23 -5 -23 -6 0 -11 8 -11 18 0 10
-10 24 -23 31 -12 7 -36 32 -52 56 -29 42 -32 44 -70 38 -22 -3 -43 -9 -47
-12 -14 -12 -17 -293 -5 -339 12 -47 42 -70 101 -79 38 -6 51 -17 43 -37 -5
-12 -23 -16 -79 -17 -40 -1 -120 -3 -178 -5 -135 -4 -160 1 -160 30 0 18 10
25 60 40 54 16 60 21 71 54 6 21 18 42 25 48 13 10 12 12 -1 18 -24 9 -22 306
2 344 10 15 22 31 28 35 6 4 2 7 -9 5 -22 -4 -47 29 -30 40 13 9 15 45 2 53
-5 3 -2 14 8 24 14 13 15 21 6 35 -6 10 -9 33 -7 51 2 18 -1 41 -6 51 -8 15
-7 24 5 37 20 22 21 45 1 37 -11 -4 -15 2 -15 24 0 16 -5 32 -10 35 -6 4 4 17
22 29 18 13 32 28 30 35 -2 9 5 10 19 6 18 -6 21 -4 16 9 -4 9 -2 16 4 16 5 0
12 -7 15 -15z m204 5 c0 -5 -5 -21 -12 -35 -13 -30 -43 -35 -33 -6 3 11 1 22
-5 26 -20 12 -10 25 20 25 17 0 30 -4 30 -10z m138 -26 c49 6 71 -6 53 -28 -7
-9 -11 -22 -8 -31 10 -26 -12 -27 -34 -1 -12 13 -28 22 -35 19 -8 -3 -14 0
-14 6 0 6 -14 18 -31 26 -26 14 -28 19 -18 32 12 13 15 13 31 -6 13 -18 25
-21 56 -17z m-925 -73 c39 -35 79 -105 71 -124 -3 -8 -13 -18 -21 -22 -14 -5
-14 -7 3 -20 16 -12 21 -11 36 1 15 14 17 13 23 -15 8 -38 1 -51 -31 -51 -13
0 -24 -3 -24 -6 0 -14 28 -31 49 -30 18 1 26 -6 32 -26 8 -32 -10 -39 -31 -13
-7 8 -17 15 -23 15 -6 0 -2 -6 8 -14 15 -10 19 -27 20 -70 0 -41 5 -59 18 -69
21 -15 21 -81 0 -83 -7 -1 -17 -2 -22 -3 -15 -2 -22 -33 -11 -46 11 -14 -5
-33 -17 -21 -3 3 -12 1 -19 -5 -7 -5 -24 -12 -39 -15 l-28 -5 32 26 c30 26 41
55 21 55 -5 0 -7 -7 -3 -16 5 -14 3 -14 -13 -4 -17 11 -19 22 -16 89 2 52 8
78 18 84 18 10 18 37 0 37 -19 0 -26 22 -26 85 0 33 -5 57 -14 64 -8 7 -17 24
-21 39 -3 15 -21 52 -40 82 -33 53 -33 55 -13 63 13 5 18 13 14 24 -7 18 12
35 29 25 5 -3 23 -17 38 -31z m1054 7 c26 -29 37 -64 23 -73 -8 -5 -7 -11 1
-21 9 -11 9 -18 1 -26 -16 -16 -15 -28 3 -28 10 0 13 10 11 35 -1 19 1 35 5
35 10 0 19 -39 19 -83 0 -35 -2 -37 -25 -31 -33 8 -34 -19 -1 -34 22 -10 23
-13 12 -46 -6 -19 -20 -39 -33 -45 -13 -6 -23 -17 -23 -26 0 -24 -19 -18 -55
19 -33 34 -32 56 3 56 10 0 12 6 7 23 -13 39 -22 152 -13 162 4 5 8 17 8 27 0
10 7 18 15 18 13 0 14 4 5 20 -11 20 -6 40 9 40 4 0 17 -10 28 -22z m493 8 c0
-8 -4 -17 -9 -21 -12 -7 -24 12 -16 25 9 15 25 12 25 -4z m-1635 -17 c-10 -15
-25 -10 -19 6 4 8 10 12 15 9 5 -3 7 -10 4 -15z m1045 -30 c0 -6 -4 -7 -10 -4
-5 3 -10 11 -10 16 0 6 5 7 10 4 6 -3 10 -11 10 -16z m600 -40 c0 -24 -17 -59
-29 -59 -18 0 -21 33 -6 56 19 30 35 31 35 3z m2025 11 c3 -5 -1 -10 -9 -10
-9 0 -16 5 -16 10 0 6 4 10 9 10 6 0 13 -4 16 -10z m-2160 -87 c-2 -27 -4 -50
-4 -52 -3 -12 -31 25 -31 42 0 17 25 57 36 57 2 0 1 -21 -1 -47z m-6074 16
c-3 -8 -4 -29 -3 -46 2 -32 1 -33 -36 -33 -30 1 -34 3 -19 11 9 5 17 19 17 30
0 29 19 61 33 56 7 -3 10 -11 8 -18z m129 -36 c0 -2 -5 -13 -10 -24 -8 -14
-21 -19 -50 -19 -22 0 -40 5 -40 10 0 6 6 10 14 10 8 0 24 8 37 19 20 16 49
19 49 4z m-1140 -154 c0 -17 -4 -28 -10 -24 -5 3 -10 17 -10 31 0 13 5 24 10
24 6 0 10 -14 10 -31z m6630 -12 c0 -5 -6 -5 -12 -1 -7 4 -5 -2 5 -13 15 -17
16 -25 7 -42 -12 -23 -18 -25 -39 -12 -9 6 -11 18 -7 35 4 18 2 26 -6 26 -7 0
-2 9 12 20 23 18 39 13 40 -13z m-6650 -31 c0 -3 -4 -8 -10 -11 -5 -3 -10 -1
-10 4 0 6 5 11 10 11 6 0 10 -2 10 -4z m6570 0 c0 -3 -4 -8 -10 -11 -5 -3 -10
-1 -10 4 0 6 5 11 10 11 6 0 10 -2 10 -4z m20 -35 c0 -15 -29 -33 -41 -25 -9
5 -7 11 6 21 22 15 35 17 35 4z m1648 -65 c3 -12 -1 -17 -10 -14 -7 3 -15 13
-16 22 -3 12 1 17 10 14 7 -3 15 -13 16 -22z m-8218 -1 c0 -16 -27 -32 -37
-21 -7 7 16 36 28 36 5 0 9 -7 9 -15z m1000 -5 c0 -5 -5 -10 -11 -10 -5 0 -7
5 -4 10 3 6 8 10 11 10 2 0 4 -4 4 -10z m0 -50 c0 -5 -4 -10 -10 -10 -5 0 -10
5 -10 10 0 6 5 10 10 10 6 0 10 -4 10 -10z m7215 -10 c3 -5 6 -65 7 -134 2
-119 -6 -156 -32 -156 -5 0 -7 286 -1 298 3 6 20 1 26 -8z m-4183 -62 c-7 -7
-12 -8 -12 -2 0 14 12 26 19 19 2 -3 -1 -11 -7 -17z m2583 12 c3 -5 -3 -10
-14 -10 -12 0 -21 5 -21 10 0 6 6 10 14 10 8 0 18 -4 21 -10z m-1715 -4 c0 -3
-4 -8 -10 -11 -5 -3 -10 -1 -10 4 0 6 5 11 10 11 6 0 10 -2 10 -4z m-4898 -78
c-5 -38 -21 -68 -36 -68 -3 0 -6 23 -6 50 0 47 12 66 23 38 3 -7 6 -3 6 10 1
13 5 21 10 18 5 -3 7 -25 3 -48z m996 22 c-1 -35 -18 -41 -18 -7 0 21 7 37 16
37 1 0 2 -13 2 -30z m417 10 c3 -5 -1 -10 -10 -10 -9 0 -13 5 -10 10 3 6 8 10
10 10 2 0 7 -4 10 -10z m4335 2 c0 -4 -9 -13 -20 -20 -24 -14 -26 -32 -5 -32
8 0 15 -9 15 -19 0 -29 -18 -35 -22 -9 -2 18 -9 23 -31 21 -15 -1 -27 2 -27 8
0 5 5 9 11 9 6 0 8 7 5 16 -3 8 -2 12 4 9 6 -3 10 -2 10 4 0 8 9 12 53 20 4 0
7 -2 7 -7z m860 -10 c-8 -3 -21 -14 -28 -24 -17 -23 -32 -15 -25 13 3 11 11
18 19 15 7 -3 16 -1 19 5 4 5 11 6 18 2 8 -5 7 -8 -3 -11z m110 -90 c0 -2 -5
0 -10 3 -12 8 -45 -23 -36 -33 4 -3 10 -1 15 6 9 14 52 7 62 -10 37 -65 70
-93 131 -114 118 -39 79 -77 -69 -68 -84 4 -89 6 -116 36 -16 19 -25 39 -22
49 3 10 1 20 -5 24 -5 3 -7 17 -4 31 7 26 -12 34 -33 13 -8 -8 -14 -5 -22 10
-17 31 2 61 39 61 32 0 37 9 19 27 -6 6 -8 16 -4 23 4 7 15 0 31 -21 13 -18
24 -35 24 -37z m-5310 48 c0 -5 -5 -10 -11 -10 -5 0 -7 5 -4 10 3 6 8 10 11
10 2 0 4 -4 4 -10z m5787 -12 c-3 -8 -6 -5 -6 6 -1 11 2 17 5 13 3 -3 4 -12 1
-19z m-6197 2 c0 -5 -5 -10 -11 -10 -5 0 -7 5 -4 10 3 6 8 10 11 10 2 0 4 -4
4 -10z m-1002 -75 c-3 -3 -9 2 -12 12 -6 14 -5 15 5 6 7 -7 10 -15 7 -18z
m994 -17 c-10 -22 -11 -21 -11 12 -1 26 2 31 11 22 8 -8 8 -17 0 -34z m-992
-150 c1 -84 1 -160 1 -168 4 -86 -5 -340 -11 -340 -5 0 -5 -13 0 -30 5 -18 5
-32 -1 -36 -18 -11 -21 3 -20 78 2 91 1 97 -5 184 -4 55 -2 79 11 104 9 17 14
34 11 38 -3 3 -6 0 -6 -7 0 -7 -4 -9 -10 -6 -5 3 -10 47 -10 97 0 71 4 96 16
110 14 15 15 26 7 68 -6 27 -8 52 -5 55 18 18 22 -11 22 -147z m1000 78 c0 -8
-4 -18 -10 -21 -5 -3 -10 3 -10 14 0 12 5 21 10 21 6 0 10 -6 10 -14z m7226
-201 c0 -103 -4 -185 -9 -185 -5 0 -11 9 -14 20 -3 11 -9 20 -14 20 -5 0 -9
64 -9 142 0 132 2 143 22 165 12 13 22 23 22 23 1 0 1 -83 2 -185z m-6477 3
c10 -24 29 -70 41 -103 12 -33 28 -73 36 -90 7 -16 44 -109 82 -205 169 -426
194 -486 218 -527 14 -24 29 -43 35 -43 5 0 25 -6 44 -14 27 -11 32 -19 28
-35 -5 -20 -11 -21 -188 -21 -160 0 -184 2 -189 16 -9 24 12 44 45 44 16 0 38
9 50 21 25 25 20 70 -21 174 l-27 70 -94 6 c-167 12 -286 10 -297 -3 -5 -7
-20 -38 -33 -68 -13 -30 -25 -57 -28 -60 -4 -3 -6 -9 -7 -15 0 -5 -4 -28 -8
-49 -6 -27 -5 -45 3 -58 9 -15 9 -23 0 -34 -16 -20 -7 -26 25 -18 30 7 34 20
9 28 -10 2 -2 4 17 3 30 -2 35 -6 38 -28 l3 -26 -148 1 -148 1 0 24 c0 18 8
26 35 35 30 10 41 23 88 116 29 58 55 113 57 123 9 40 22 77 56 152 5 11 18
45 28 75 39 112 49 135 66 145 10 5 29 20 43 33 21 19 24 25 12 32 -8 5 -18 6
-22 4 -4 -3 -8 2 -8 11 0 9 6 15 13 12 6 -2 20 0 30 5 20 10 23 -11 6 -44 -6
-11 -12 -30 -14 -42 -2 -11 -21 -72 -44 -134 -23 -62 -41 -117 -41 -122 0 -6
67 -10 166 -10 154 0 166 1 159 18 -4 9 -11 31 -15 47 -5 17 -29 89 -55 160
-26 72 -53 152 -60 179 -8 27 -18 53 -24 59 -13 13 -33 -2 -27 -21 3 -10 1
-23 -3 -31 -8 -13 -12 -13 -27 0 -15 13 -16 12 -11 -11 4 -14 4 -20 1 -13 -3
7 -12 9 -19 7 -11 -5 -12 1 -5 28 6 18 10 35 10 37 0 3 6 -4 14 -15 8 -10 17
-17 19 -14 9 9 10 55 2 74 -5 11 -3 26 3 37 7 10 12 26 12 34 0 25 28 85 39
85 6 0 19 -19 30 -42z m4829 33 c9 -6 30 -12 45 -16 33 -7 26 -25 -10 -25 -20
0 -24 -4 -20 -20 5 -18 3 -19 -23 -5 -16 8 -30 20 -32 27 -4 10 -8 10 -19 2
-8 -6 -35 -12 -61 -13 -51 -1 -113 -24 -171 -64 -77 -52 -156 -269 -149 -411
1 -23 -3 -43 -11 -48 -9 -6 -9 -12 2 -30 8 -13 15 -41 17 -63 1 -22 4 -47 7
-55 3 -8 11 -33 18 -54 6 -22 30 -66 52 -99 64 -93 122 -129 230 -142 31 -4
57 -12 57 -18 0 -6 6 -3 13 8 8 10 19 15 25 11 6 -4 26 3 43 16 30 22 31 22
44 4 13 -18 13 -22 -12 -65 -2 -2 -35 -10 -75 -17 -84 -14 -197 -4 -263 25
-22 10 -66 41 -97 70 -52 48 -56 54 -45 74 7 12 16 25 21 28 4 4 3 10 -3 13
-6 4 -11 2 -11 -3 0 -6 -14 -11 -32 -11 -17 0 -29 3 -25 6 3 4 -2 14 -13 23
-10 9 -31 48 -47 86 -27 67 -28 78 -28 225 1 143 3 160 27 221 14 37 39 86 54
110 33 53 104 129 119 129 7 0 20 9 29 19 17 18 99 55 141 64 42 8 186 7 203
-2z m-3563 -28 c22 -7 30 -16 29 -31 -1 -26 5 -28 21 -5 11 15 15 15 49 -6 38
-24 88 -89 100 -131 32 -111 29 -142 -17 -156 -31 -9 -40 -25 -18 -32 6 -2 11
4 11 13 0 9 5 13 10 10 6 -3 10 -17 10 -31 0 -13 -4 -24 -10 -24 -5 0 -10 5
-10 10 0 6 -7 10 -15 10 -8 0 -15 -5 -15 -11 0 -6 -7 -9 -15 -5 -18 6 -45 -2
-45 -15 0 -5 11 -7 25 -3 30 7 33 -6 5 -24 -23 -14 -27 -37 -5 -28 8 3 15 1
15 -3 0 -14 -26 -21 -37 -10 -5 5 -18 7 -27 3 -14 -5 -15 -9 -4 -16 10 -7 9
-11 -6 -23 -11 -8 -28 -15 -39 -15 -10 0 -27 -5 -38 -10 -17 -10 -13 -19 61
-120 44 -61 77 -110 74 -110 -4 0 8 -14 25 -32 35 -36 35 -50 1 -58 -20 -5
-21 -7 -7 -18 12 -10 16 -10 21 3 5 14 10 14 37 -6 17 -12 37 -36 45 -54 11
-26 20 -33 51 -38 48 -8 83 -32 83 -59 0 -17 -4 -19 -26 -14 -14 4 -40 1 -58
-5 -48 -17 -87 -1 -102 42 -7 19 -13 26 -13 17 -1 -10 -5 -18 -11 -18 -5 0
-10 -4 -10 -10 0 -5 7 -10 15 -10 8 0 15 -5 15 -11 0 -23 -27 1 -72 64 -26 36
-50 78 -54 92 -3 13 -10 23 -14 20 -11 -7 -73 73 -194 250 l-38 56 -42 -6
c-22 -4 -43 -9 -46 -12 -3 -3 -5 -80 -5 -173 0 -156 2 -171 21 -197 16 -21 34
-30 72 -37 48 -8 52 -11 52 -37 l0 -29 -188 0 c-197 0 -233 7 -219 43 7 19 35
12 54 -12 11 -14 12 -13 13 5 0 11 12 31 26 45 14 13 30 34 35 47 13 33 12
714 -1 782 -11 61 -24 75 -78 85 -20 4 -42 11 -49 17 -16 13 -5 38 13 31 8 -3
14 0 14 7 0 15 477 8 525 -7z m1433 9 c9 -3 12 -34 11 -118 -2 -113 -2 -114
-26 -114 -14 0 -26 7 -29 18 -8 24 -33 84 -43 102 -17 32 -57 39 -233 42
l-176 3 -7 -48 c-3 -27 -5 -93 -4 -147 1 -54 -2 -103 -6 -109 -4 -7 -1 -18 5
-26 6 -8 9 -19 6 -24 -4 -5 3 -19 15 -29 l21 -20 -34 -8 c-18 -4 -36 -7 -40
-6 -5 1 -8 -2 -8 -8 0 -5 10 -8 23 -6 13 2 27 -4 35 -15 7 -10 19 -16 27 -13
17 7 20 34 4 34 -5 0 -7 5 -4 11 4 6 14 8 22 5 8 -3 24 1 36 8 14 10 56 16
117 17 109 3 116 7 140 83 15 46 20 51 46 51 l29 0 0 -180 0 -180 -31 -3 c-29
-3 -32 0 -39 35 -8 49 -30 81 -60 93 -39 15 -284 17 -293 3 -4 -7 -7 -97 -7
-201 0 -145 3 -193 14 -205 11 -14 11 -20 1 -32 -9 -11 -9 -15 -1 -15 6 0 14
6 17 13 4 10 34 13 127 12 151 -2 148 -2 141 -20 -4 -9 0 -15 10 -15 9 0 16 8
16 19 0 14 16 27 53 44 68 32 94 58 123 124 17 38 29 53 44 53 31 0 33 -36 5
-157 -14 -61 -25 -115 -25 -118 0 -3 -107 -5 -237 -5 -131 1 -308 1 -393 1
-85 0 -159 4 -163 8 -18 18 -2 45 33 53 73 18 88 28 97 66 10 42 17 702 7 774
-8 63 -21 77 -84 91 -44 10 -56 17 -58 34 -2 14 3 23 15 26 23 6 743 6 761 -1z
m631 -6 c6 -4 11 -2 11 3 0 14 257 13 335 -1 54 -10 130 -45 177 -82 10 -7 33
-39 53 -71 30 -50 35 -68 35 -119 0 -44 -6 -69 -20 -91 -11 -16 -20 -38 -20
-47 0 -9 -5 -20 -11 -24 -8 -4 -9 0 -4 15 5 17 2 21 -14 21 -30 0 -37 -21 -13
-40 22 -18 20 -32 -2 -24 -17 6 -40 -22 -33 -40 6 -16 -11 -36 -32 -36 -8 0
-22 -7 -31 -15 -22 -20 -59 -26 -205 -34 l-120 -6 -3 -163 -3 -163 30 -29 c18
-19 44 -32 70 -36 45 -7 66 -26 57 -49 -5 -13 -33 -15 -203 -13 l-198 3 0 24
c0 18 8 27 32 35 32 11 83 50 83 63 0 5 1 132 3 284 2 249 4 279 20 297 17 18
17 20 -5 34 l-23 16 38 15 c21 9 45 13 54 10 11 -4 14 -2 11 8 -4 9 -17 13
-43 11 -32 -3 -37 -1 -31 14 4 10 1 21 -6 25 -7 5 -14 27 -15 50 -2 62 -20 87
-67 100 -50 13 -66 26 -66 51 0 17 6 19 74 15 41 -3 79 -8 85 -11z m1628 -32
c3 -8 11 -14 19 -14 23 0 88 -66 73 -75 -7 -5 -18 -1 -26 11 -10 14 -17 16
-30 8 -27 -17 -28 -36 -2 -34 53 5 68 -1 88 -32 22 -36 14 -56 -15 -40 -24 12
-44 5 -44 -15 0 -17 -59 64 -60 82 -1 6 -21 25 -46 44 -35 25 -43 36 -34 45 6
6 16 11 23 11 7 0 11 8 9 17 -2 12 3 15 19 11 11 -3 23 -12 26 -19z m1511
-200 c16 10 15 -5 -2 -30 -10 -13 -11 -25 -5 -35 14 -22 11 -66 -5 -72 -18 -7
-26 22 -26 102 0 57 2 63 13 46 8 -10 19 -15 25 -11z m-1300 -73 c6 -14 13
-47 17 -73 5 -37 3 -48 -11 -56 -19 -10 -11 -32 12 -32 9 0 14 -11 14 -30 0
-23 -4 -30 -20 -30 -11 0 -20 -5 -20 -11 0 -6 9 -13 20 -16 26 -7 26 -30 0
-38 -11 -4 -17 -11 -14 -17 4 -6 -1 -8 -16 -3 -15 5 -20 4 -16 -4 4 -6 16 -11
26 -11 10 0 22 -5 25 -11 8 -13 -33 -148 -52 -170 -7 -8 -13 -20 -13 -26 0 -6
-18 -31 -41 -57 -32 -36 -45 -45 -63 -40 -29 7 -54 -20 -37 -40 9 -11 8 -15
-5 -20 -23 -9 -52 -7 -58 3 -3 4 6 6 19 3 15 -2 25 0 25 7 0 6 -6 11 -12 11
-7 0 -21 6 -30 13 -15 12 -11 19 40 73 31 32 55 63 54 68 -2 4 7 36 19 70 31
91 41 234 25 359 -3 26 -1 27 33 25 30 -3 36 0 36 17 0 13 -6 19 -16 17 -9 -1
-22 5 -29 13 -7 8 -19 15 -26 15 -8 0 -14 5 -14 11 0 6 7 9 15 5 8 -3 25 -2
37 3 34 12 66 1 76 -28z m1302 -115 c9 -26 3 -66 -11 -66 -5 0 -9 -7 -9 -15 0
-8 -4 -15 -10 -15 -13 0 -13 27 0 35 6 4 7 23 4 46 -7 44 10 55 26 15z m-8219
-103 c4 -20 1 -42 -6 -57 -8 -14 -9 -28 -4 -33 5 -5 9 -85 10 -179 0 -93 3
-184 7 -202 l7 -34 100 101 c68 70 106 101 122 101 18 0 23 6 23 24 0 30 17
43 33 24 7 -8 20 -20 30 -27 25 -19 22 4 -4 30 -16 16 -18 23 -9 29 6 4 17 18
23 30 24 48 32 30 35 -79 l3 -110 -165 -168 c-91 -92 -166 -173 -166 -179 0
-6 12 -21 26 -35 l26 -24 18 23 c10 12 24 22 31 22 7 0 4 -9 -9 -23 -27 -29
-27 -39 -2 -62 31 -28 26 -47 -7 -29 -16 7 -36 14 -45 14 -23 0 -32 18 -18 34
8 11 4 19 -20 36 l-31 22 -99 -100 c-112 -114 -122 -131 -83 -149 15 -7 35
-13 44 -13 9 0 17 -6 16 -12 -2 -56 3 -68 29 -68 31 0 60 15 88 45 29 31 63
48 71 35 3 -5 17 -10 31 -10 17 0 24 -5 24 -20 0 -11 3 -20 8 -20 23 0 3 -135
-28 -189 -7 -12 2 -28 37 -63 46 -47 46 -47 34 -87 -8 -30 -16 -39 -31 -38
-24 2 -25 13 -5 33 13 13 12 19 -2 49 -9 19 -23 35 -31 35 -8 0 -16 8 -19 18
-2 10 -16 24 -31 30 -60 27 -84 45 -93 69 -6 17 -14 23 -25 19 -9 -3 -22 -6
-30 -6 -8 0 -14 -5 -14 -10 0 -6 -9 -20 -20 -32 -25 -28 -25 -35 2 -49 13 -7
28 -17 35 -23 6 -6 38 -35 70 -64 90 -83 96 -87 120 -84 20 3 21 1 10 -27 -6
-17 -18 -31 -25 -31 -8 0 -16 -9 -19 -20 -3 -11 -9 -20 -13 -20 -5 0 -12 -9
-15 -21 -6 -18 21 -49 163 -188 237 -231 785 -765 855 -832 l58 -55 -3 -127
-3 -126 -100 94 c-55 52 -103 94 -107 95 -16 1 -18 -63 -16 -505 l3 -460 40 0
c39 0 40 1 37 33 -1 17 2 32 8 32 5 0 10 -15 10 -34 0 -33 2 -34 48 -41 l47
-7 -54 -24 c-65 -29 -61 -29 -61 -4 0 21 -16 25 -57 14 -22 -6 -23 -10 -23
-149 0 -158 4 -170 56 -156 21 5 31 15 35 37 6 28 7 28 8 3 1 -17 9 -30 26
-37 14 -6 25 -16 25 -22 0 -5 4 -10 9 -10 14 0 44 72 45 108 0 17 4 32 8 32 4
0 5 6 3 13 -3 6 -1 26 4 42 5 17 10 22 10 12 1 -14 5 -16 20 -7 24 12 81 2 81
-15 0 -7 11 -16 24 -19 14 -3 27 -16 31 -29 3 -12 16 -43 28 -70 19 -42 25
-47 52 -46 75 4 106 -1 111 -18 3 -10 10 -27 16 -38 8 -15 7 -21 -4 -29 -13
-8 -13 -14 -1 -49 9 -25 10 -44 5 -49 -6 -6 -6 -22 1 -41 5 -18 12 -38 13 -45
3 -10 101 -12 510 -8 278 2 508 7 512 10 5 6 -79 101 -105 119 -7 4 -13 14
-13 21 0 10 29 14 122 15 l122 2 83 -83 83 -83 1341 -2 1342 -3 79 81 79 82
111 4 c75 3 109 1 107 -6 -2 -6 -35 -42 -73 -81 -58 -59 -66 -70 -48 -71 12
-1 27 -3 32 -4 6 -1 143 -3 305 -4 213 -1 294 -4 293 -12 -2 -6 3 -14 11 -17
10 -3 12 0 8 12 -6 14 8 16 134 14 81 -1 143 -6 146 -12 10 -16 31 57 25 92
l-4 32 -112 2 -111 2 111 3 112 4 6 30 c3 17 4 41 1 52 -3 12 -1 29 4 37 17
26 35 -5 35 -60 l0 -50 88 3 c49 2 91 0 94 -5 7 -11 67 -10 97 1 28 11 39 54
22 86 -7 14 -21 20 -50 21 -152 6 -185 8 -230 20 -56 13 -45 24 25 24 37 -1
110 2 233 9 9 1 17 8 17 16 0 8 5 15 11 15 8 0 8 4 0 14 -30 36 10 119 41 88
9 -9 9 -24 2 -61 -6 -28 -7 -48 -2 -45 4 3 8 -4 8 -15 0 -30 15 -33 52 -13 31
18 33 22 35 81 1 70 9 99 23 85 9 -9 13 -48 8 -89 -5 -53 2 -73 29 -79 46 -12
52 5 54 158 2 126 0 140 -17 153 -18 13 -18 15 -1 24 13 8 17 23 17 73 0 48 4
65 15 70 8 3 15 10 15 15 0 6 -8 7 -17 4 -12 -5 -9 2 9 21 21 24 29 26 46 17
12 -7 23 -7 26 -2 8 12 -41 23 -71 17 -20 -4 -23 -1 -23 26 0 22 4 29 15 24 8
-3 19 2 24 11 7 14 12 15 24 5 8 -7 21 -10 29 -7 10 4 17 -1 21 -15 3 -14 12
-20 24 -18 14 2 19 -4 21 -29 3 -28 0 -33 -17 -33 -12 0 -21 -4 -21 -9 0 -5 8
-8 18 -7 14 1 17 -9 20 -66 2 -38 -2 -77 -9 -89 -8 -15 -8 -23 0 -28 7 -4 10
-39 8 -93 -2 -98 -11 -108 -72 -82 -44 18 -44 18 -42 -7 1 -14 7 -19 19 -16
22 6 23 -3 4 -28 -10 -15 -11 -23 -2 -37 13 -21 26 -24 26 -5 0 17 37 39 45
27 3 -6 2 -10 -3 -10 -5 0 -12 -11 -14 -24 -4 -20 0 -26 16 -28 16 -2 22 -11
24 -40 2 -29 0 -38 -12 -38 -9 0 -16 -5 -16 -11 0 -6 -7 -8 -16 -5 -8 3 -13 2
-10 -2 2 -4 1 -14 -4 -21 -6 -10 -12 -7 -25 13 -10 14 -23 26 -31 26 -11 0
-10 -4 3 -20 22 -26 24 -47 6 -55 -21 -7 -30 2 -15 17 18 18 14 31 -8 25 -15
-4 -22 1 -26 18 -4 17 -15 25 -40 30 -44 8 -54 1 -54 -38 0 -51 -20 -79 -65
-91 -39 -11 -40 -13 -40 -56 0 -40 2 -44 30 -52 23 -6 33 -4 42 9 11 14 16 15
38 3 14 -7 23 -16 20 -18 -3 -3 0 -11 6 -19 15 -17 40 1 32 23 -5 13 9 18 46
16 8 0 21 7 28 16 11 16 12 16 13 0 0 -12 5 -15 16 -11 9 3 21 -3 30 -16 10
-13 22 -20 32 -17 13 4 17 -1 18 -19 1 -14 -2 -25 -6 -25 -5 0 -15 -3 -24 -6
-11 -4 -16 -1 -16 10 0 9 -16 22 -37 31 -53 21 -56 21 -74 -11 -9 -17 -23 -28
-33 -26 -19 3 -21 -9 -4 -26 16 -16 28 -15 28 3 0 8 5 15 11 15 6 0 9 -9 6
-19 -4 -17 0 -19 29 -18 36 2 49 27 15 27 -31 0 -34 17 -4 25 22 5 32 2 48
-19 12 -14 26 -26 33 -26 7 0 10 -5 7 -10 -3 -6 1 -13 9 -16 9 -3 16 -14 16
-24 0 -23 -73 -30 -269 -25 -130 4 -146 6 -143 21 3 12 -1 15 -13 10 -9 -3
-23 -6 -31 -6 -8 0 -11 -6 -8 -15 5 -12 -50 -14 -416 -15 -375 0 -421 2 -410
15 10 12 10 15 -3 15 -9 0 -20 -7 -24 -15 -7 -12 -57 -15 -323 -17 -281 -3
-315 -5 -312 -19 1 -9 -13 -29 -30 -46 -18 -16 -45 -43 -59 -59 -14 -16 -43
-45 -65 -65 -21 -20 -66 -65 -100 -101 -48 -53 -64 -64 -77 -56 -19 10 -41 2
-32 -12 3 -5 13 -6 22 -3 10 4 14 2 11 -7 -2 -8 -20 -18 -39 -23 -52 -13 -93
-57 -52 -57 15 0 15 -2 -1 -19 -19 -21 -59 -32 -77 -20 -7 4 -20 2 -29 -4 -14
-8 -24 -5 -48 11 -16 12 -35 22 -41 22 -6 0 -11 3 -11 8 0 4 19 6 43 5 40 -2
41 -2 14 9 -15 7 -26 15 -25 19 2 4 89 95 193 203 105 108 192 201 193 206 5
14 -2265 13 -2273 0 -4 -6 26 -42 67 -81 255 -245 426 -422 422 -434 -3 -7 -1
-16 5 -20 7 -4 8 0 4 11 -5 13 -3 15 8 9 26 -15 119 -109 119 -120 0 -6 10
-17 22 -25 11 -8 36 -28 54 -43 l33 -28 38 35 38 35 -50 50 c-27 28 -45 51
-39 51 5 0 28 -18 49 -40 21 -22 44 -40 50 -40 6 0 26 16 45 35 19 19 40 35
47 35 23 0 14 -28 -21 -62 l-34 -33 47 -53 c25 -28 52 -52 59 -52 6 0 14 -11
18 -25 7 -29 62 -75 89 -75 9 0 29 10 44 23 27 23 40 57 22 57 -16 0 -51 33
-51 47 0 6 -8 14 -18 17 -10 3 -26 19 -35 36 -10 16 -27 35 -38 40 -10 6 -19
16 -19 22 0 7 -10 22 -22 35 -12 13 -18 26 -14 30 11 12 41 -12 44 -36 2 -11
10 -21 18 -21 8 0 26 -11 39 -25 15 -14 25 -19 25 -11 0 19 30 41 77 56 35 11
50 11 90 0 26 -7 53 -17 60 -22 8 -7 24 -4 44 6 40 20 39 21 39 -9 0 -19 -6
-25 -33 -30 -37 -7 -109 8 -144 31 -20 13 -24 12 -35 -6 -8 -12 -24 -20 -40
-20 -36 0 -45 -18 -19 -36 12 -8 21 -21 21 -28 0 -8 11 -21 25 -30 25 -17 27
-16 72 24 51 45 78 48 78 10 0 -19 -9 -30 -40 -45 -26 -13 -39 -26 -37 -37 2
-9 -2 -19 -7 -23 -19 -11 -12 -28 8 -22 11 3 29 -2 41 -10 19 -13 23 -12 51
11 17 14 28 26 25 26 -3 0 8 14 26 30 40 39 60 25 27 -19 -12 -17 -29 -31 -37
-31 -8 0 -16 -9 -19 -20 -3 -11 -9 -20 -15 -20 -5 0 -7 -12 -5 -27 3 -21 10
-29 28 -31 18 -2 39 12 84 58 33 33 66 60 75 60 8 0 21 14 28 30 8 17 20 30
29 30 11 0 13 7 8 30 -5 24 -4 29 8 24 9 -3 30 11 54 35 27 28 49 41 67 41 15
0 29 7 33 16 3 8 11 13 19 10 7 -3 18 2 24 10 7 8 10 15 6 15 -3 1 -10 3 -16
4 -5 1 -12 3 -15 4 -9 2 15 41 25 41 6 0 10 -7 10 -15 0 -17 25 -20 35 -5 11
18 23 11 18 -10 -3 -12 1 -22 11 -26 12 -4 13 -10 6 -24 -13 -25 -13 -30 5
-30 8 0 15 -4 15 -8 0 -12 -39 -52 -50 -52 -6 0 -10 -6 -10 -12 0 -22 -99
-111 -115 -104 -10 4 -15 -1 -15 -16 0 -14 -23 -44 -61 -80 l-62 -58 -24 26
c-13 15 -29 38 -35 53 l-10 26 -10 -25 c-6 -16 -6 -26 1 -28 6 -2 11 -10 11
-18 0 -8 5 -14 10 -14 6 0 10 -4 10 -10 0 -5 -7 -10 -15 -10 -8 0 -15 6 -15
13 0 7 -9 13 -20 14 -15 1 -20 -4 -20 -23 0 -14 4 -23 10 -19 13 8 60 -5 60
-17 0 -6 -7 -7 -16 -4 -23 9 -49 -21 -34 -39 21 -25 -24 -76 -52 -59 -6 4 -14
0 -19 -7 -7 -11 -9 -10 -9 4 0 16 -2 16 -24 2 -28 -19 -44 -5 -17 14 21 16 16
55 -5 47 -25 -10 -45 4 -34 24 13 24 -15 80 -40 80 -10 0 -20 -5 -22 -11 -2
-5 -22 -19 -45 -29 -36 -16 -44 -16 -60 -4 -28 21 -62 17 -87 -13 l-24 -27 20
-27 c13 -18 26 -25 39 -22 19 5 24 -9 19 -64 -1 -23 25 -34 32 -13 4 12 48 1
48 -12 0 -14 23 -34 49 -43 17 -5 20 -10 12 -18 -16 -16 -13 -45 6 -56 16 -8
14 -10 -9 -16 -31 -8 -55 2 -40 17 7 7 3 24 -11 49 -20 38 -23 40 -59 34 -34
-6 -38 -5 -38 15 0 12 -4 18 -10 15 -5 -3 -10 -18 -10 -32 0 -20 4 -24 20 -20
23 6 27 -8 6 -20 -12 -6 -9 -12 15 -25 23 -14 29 -14 29 -3 0 8 -4 17 -10 20
-16 10 -11 26 8 23 24 -4 32 -18 32 -58 0 -20 5 -41 12 -48 9 -9 9 -12 -3 -12
-10 0 -15 -9 -15 -22 1 -15 -5 -23 -15 -23 -9 0 -81 62 -159 138 -105 101
-140 141 -130 147 11 7 11 12 2 23 -7 7 -10 16 -7 18 2 3 -4 5 -15 5 -10 0
-18 -3 -17 -7 7 -25 -30 5 -146 116 -307 294 -459 450 -443 453 9 2 16 8 16
13 0 9 -18 12 -50 10 -8 0 -123 105 -255 234 l-240 234 -905 1 c-498 0 -949 3
-1003 7 l-98 6 4 186 c3 102 5 191 6 196 0 6 -2 27 -5 48 -4 21 -2 43 4 50 7
8 7 18 2 27 -6 8 -10 28 -10 44 0 21 4 27 15 22 8 -3 15 -1 15 5 0 5 -7 12
-15 15 -13 5 -15 50 -15 315 0 230 3 315 13 330 10 17 10 23 0 26 -7 3 -13 15
-13 28 0 22 4 23 40 20 22 -2 40 1 40 6 0 5 -15 9 -34 9 -33 0 -34 1 -41 50
-8 57 -3 70 25 63 14 -4 19 -11 15 -23 -3 -10 -1 -21 4 -24 13 -8 24 29 16 53
-4 14 -14 19 -33 18 l-27 -2 -3 241 -2 241 -98 94 c-84 81 -579 565 -1104
1079 -87 85 -158 159 -158 165 0 18 245 265 263 265 9 0 17 8 17 17 0 20 38
63 57 63 7 0 13 5 13 12 0 6 10 22 21 34 19 20 23 21 36 8 19 -18 43 -18 43 1
0 8 -5 14 -12 12 -6 -1 -14 6 -16 17 -3 13 22 44 82 103 l86 85 1 212 c1 116
1 253 0 304 -2 85 0 93 16 90 10 -2 20 -16 24 -35z m8223 -277 l2 -234 32 -38
c18 -21 32 -44 32 -51 0 -6 9 -15 20 -18 11 -3 20 -13 20 -21 0 -8 5 -14 10
-14 6 0 10 -11 10 -25 0 -19 4 -23 18 -18 11 4 9 0 -7 -13 -22 -19 -22 -21 -6
-37 18 -19 42 -22 65 -7 12 7 11 10 -7 17 -16 6 -20 12 -13 23 7 11 43 -19
162 -135 85 -83 165 -167 179 -187 13 -21 27 -38 31 -38 3 0 6 -16 5 -35 -1
-23 -6 -35 -15 -35 -11 0 -12 -3 -3 -14 9 -11 8 -15 -4 -20 -9 -3 -13 -2 -10
4 10 16 -5 12 -22 -6 -12 -12 -13 -18 -5 -23 9 -5 4 -15 -14 -32 -14 -13 -27
-23 -30 -21 -11 6 -25 1 -23 -10 3 -26 -2 -37 -18 -42 -10 -3 -27 -19 -38 -36
-13 -20 -27 -29 -40 -28 -14 2 -20 -2 -18 -16 1 -11 -4 -25 -10 -31 -7 -7 -86
-89 -177 -184 -90 -94 -170 -171 -178 -171 -7 0 -11 -4 -7 -9 7 -13 -26 -30
-44 -23 -9 3 -11 -1 -7 -15 8 -26 -21 -51 -59 -51 -49 0 -55 -1 -55 -13 0 -6
9 -9 20 -6 11 3 23 1 26 -4 7 -12 -76 -104 -96 -105 -8 -1 -19 -2 -25 -3 -5
-1 -4 -5 4 -10 10 -6 -34 -56 -170 -195 -101 -103 -188 -185 -195 -182 -6 2
-26 -9 -45 -25 -25 -21 -29 -29 -16 -29 25 0 21 -13 -13 -43 -16 -15 -30 -33
-31 -40 0 -6 0 -130 0 -274 0 -219 -3 -267 -16 -294 -13 -26 -13 -33 -2 -40
11 -7 10 -9 -4 -9 -10 0 -15 -5 -12 -11 4 -6 13 -8 21 -5 10 4 14 -3 14 -25 0
-29 -19 -59 -38 -59 -5 0 -14 -11 -20 -25 -10 -22 -30 -29 -68 -24 -4 0 -10
-5 -15 -12 -4 -8 -11 -10 -15 -6 -4 3 4 15 17 26 13 11 21 23 17 27 -4 4 -14
1 -23 -6 -13 -11 -15 18 -15 268 0 169 -4 283 -10 287 -5 3 -55 -42 -112 -100
-57 -58 -106 -105 -110 -105 -4 0 -6 52 -5 115 l2 114 45 45 c31 32 53 46 73
46 15 0 27 5 27 11 0 6 -7 9 -15 5 -24 -9 -18 3 25 45 22 22 45 37 50 34 6 -3
7 1 4 9 -7 18 7 21 23 5 15 -15 33 -3 33 22 0 10 6 19 13 19 8 0 7 3 -3 10
-12 8 -6 19 36 62 29 29 93 96 143 148 251 260 365 370 371 359 5 -6 16 -8 29
-4 24 7 29 25 7 25 -21 0 -28 17 -10 24 8 3 12 2 9 -4 -3 -6 -1 -10 5 -10 7 0
9 7 6 17 -4 9 1 23 11 33 85 83 173 181 173 192 0 7 -25 38 -55 68 -56 56 -69
78 -37 65 9 -4 32 -11 50 -17 29 -8 46 -38 22 -38 -19 0 -10 -16 20 -39 l30
-22 100 103 c107 111 121 140 73 154 -31 8 -30 8 -58 -1 -13 -5 -16 -4 -7 2 7
5 11 25 10 47 -3 38 -3 38 -41 33 -20 -3 -48 -15 -61 -28 -12 -12 -26 -21 -29
-21 -4 1 -17 -8 -28 -19 -13 -13 -24 -17 -28 -11 -3 5 -15 11 -26 13 -18 4
-20 13 -23 97 -2 68 1 102 12 124 15 29 15 31 -12 57 -48 44 -62 73 -54 106 6
20 16 31 30 33 12 2 22 -1 22 -7 0 -6 -4 -11 -9 -11 -29 0 -7 -85 25 -97 8 -3
14 -10 14 -17 0 -6 12 -17 28 -24 50 -22 87 -48 96 -69 7 -15 19 -21 43 -20
18 1 33 6 33 13 0 6 10 23 21 38 12 15 20 28 18 30 -2 1 -17 11 -34 21 -16 10
-50 38 -75 61 -94 88 -119 106 -140 99 -14 -4 -20 -2 -20 9 0 8 4 17 10 21 5
3 7 12 3 20 -4 11 2 15 21 15 18 0 26 5 26 18 0 24 40 49 51 31 9 -15 3 -29
-14 -29 -17 0 -41 -54 -26 -59 6 -2 19 -12 27 -22 9 -11 22 -19 28 -19 6 0 19
-16 28 -35 9 -19 21 -35 26 -35 5 0 30 -18 55 -40 25 -22 49 -40 52 -40 9 0
63 62 63 73 0 6 -32 42 -71 80 -38 38 -68 74 -66 80 2 7 -17 26 -42 44 -57 40
-138 113 -299 269 l-124 121 6 109 c3 60 6 122 6 138 -1 28 6 23 103 -75 57
-57 138 -137 180 -177 48 -46 74 -78 70 -88 -6 -16 22 -20 32 -4 4 6 8 104 9
218 1 115 6 214 11 221 19 32 27 -33 29 -253z m-4447 -321 c36 -5 47 -13 78
-56 28 -40 32 -51 20 -55 -17 -7 -20 -30 -5 -39 6 -4 18 -1 26 6 13 11 15 7
12 -27 -3 -35 -1 -39 20 -37 14 2 22 -3 22 -12 0 -8 9 -15 20 -15 11 0 20 -4
20 -9 0 -4 14 -25 30 -46 17 -21 29 -40 26 -42 -2 -2 11 -19 28 -37 39 -42
116 -151 116 -163 0 -6 9 -18 20 -28 11 -10 20 -26 20 -36 0 -10 8 -20 18 -23
26 -9 53 -68 40 -89 -10 -19 6 -24 18 -6 4 7 19 -3 39 -27 18 -22 36 -36 40
-32 4 4 9 40 10 81 1 41 5 79 9 86 4 7 5 20 1 29 -5 14 -10 129 -6 170 0 6 9
13 19 13 16 1 16 2 0 6 -10 2 -18 12 -19 21 0 9 -2 60 -4 112 -6 125 -19 166
-58 180 -16 5 -36 10 -44 10 -19 0 -43 25 -43 43 0 21 51 28 191 26 151 -2
159 -4 159 -40 0 -24 -4 -29 -24 -29 -45 0 -74 -18 -85 -52 -8 -23 -12 -190
-14 -494 -2 -417 -4 -459 -18 -459 -18 0 -209 237 -209 259 0 3 9 6 20 6 11 0
20 4 20 8 0 16 -37 42 -52 37 -20 -8 -90 69 -82 90 4 9 -2 18 -15 23 -27 10
-131 140 -131 164 0 11 -4 17 -9 13 -6 -3 -23 14 -39 37 -16 24 -39 52 -51 62
-11 11 -21 25 -21 31 0 7 -7 18 -15 25 -8 7 -15 21 -15 31 0 11 -5 19 -11 19
-6 0 -17 7 -26 15 -8 9 -18 14 -20 11 -3 -2 -4 -151 -4 -331 2 -374 5 -392 71
-421 22 -10 37 -23 36 -33 -1 -10 6 -15 17 -15 10 1 16 -3 14 -10 -4 -11 -277
-20 -325 -10 -37 7 -25 46 17 60 19 6 45 23 58 38 26 30 26 24 24 581 l-1 259
-26 28 c-16 15 -40 28 -58 30 -25 2 -32 8 -34 30 -3 26 -1 27 50 30 29 2 62 4
73 6 11 1 39 0 62 -3z m-2267 -21 c0 -8 8 -15 18 -15 15 -1 15 -2 0 -6 -9 -2
-19 -11 -22 -19 -4 -11 -2 -12 14 -4 13 7 21 7 25 -1 9 -14 4 -18 -26 -21 -19
-2 -24 2 -24 20 0 15 -11 28 -29 37 -33 18 -39 19 -31 5 3 -5 1 -10 -4 -10 -6
0 -10 -15 -9 -32 3 -28 0 -33 -17 -31 -20 3 -63 -23 -54 -32 3 -2 17 2 32 10
33 17 48 0 18 -21 -20 -14 -20 -41 0 -29 5 4 9 2 9 -4 0 -18 -17 -21 -44 -8
-20 9 -26 19 -26 45 0 18 6 42 13 53 10 17 10 23 0 26 -14 5 -18 35 -6 46 3 4
41 6 85 6 60 -1 78 -4 78 -15z m648 -33 c2 -42 -1 -51 -18 -56 -25 -8 -25 -20
0 -38 28 -19 40 -124 16 -133 -23 -9 -56 23 -56 54 0 20 2 22 15 12 12 -10 16
-9 21 5 4 9 1 22 -6 28 -10 9 -14 9 -17 0 -8 -22 -21 -14 -44 27 -30 54 -69
70 -168 70 -77 0 -81 -1 -82 -22 -4 -96 -7 -126 -16 -148 -8 -18 -7 -26 1 -28
19 -4 13 -154 -8 -183 -14 -21 -14 -24 -2 -27 20 -4 19 -72 -1 -72 -7 0 -13
-9 -13 -21 0 -11 4 -18 9 -14 18 10 21 -13 27 -167 4 -125 9 -161 26 -196 11
-23 23 -40 28 -37 4 3 29 2 54 -1 33 -5 47 -12 52 -27 4 -11 1 -23 -7 -28 -7
-4 -107 -8 -221 -9 l-208 -1 0 31 c0 25 4 30 25 30 37 0 92 25 103 47 20 39
23 101 22 476 l0 388 -26 24 c-15 14 -31 22 -37 18 -6 -4 -3 -10 9 -14 20 -8
20 -8 -13 -15 -27 -5 -42 15 -19 28 9 5 16 18 16 28 0 19 9 20 268 20 l268 0
2 -49z m1079 42 c-4 -3 -1 -13 5 -21 7 -8 14 -56 16 -107 4 -87 3 -93 -17
-100 -11 -3 -25 -4 -30 -1 -13 8 -24 66 -22 114 3 39 -10 55 -24 32 -4 -6 -12
-7 -18 -3 -7 4 -16 8 -22 9 -5 0 -16 2 -22 2 -7 1 -13 9 -13 18 0 14 -2 14
-16 3 -19 -15 -57 -20 -65 -7 -3 5 -15 5 -30 0 -13 -5 -64 -10 -112 -11 -108
-3 -116 -6 -124 -42 -3 -18 -12 -29 -22 -29 -14 -1 -14 -2 2 -14 15 -12 18
-33 20 -152 l2 -139 131 -3 c86 -2 144 2 170 10 36 12 40 17 54 71 13 52 17
57 41 57 34 0 39 -17 39 -137 0 -67 -3 -93 -12 -94 -7 -1 -17 -2 -23 -4 -5 -1
-14 -3 -19 -3 -6 -1 -1 -8 10 -16 14 -10 21 -11 26 -3 14 22 18 -1 12 -56 -4
-31 -12 -58 -19 -61 -23 -8 -46 19 -52 61 -10 76 -28 84 -197 85 -80 1 -149
-2 -153 -6 -9 -9 -14 -326 -6 -374 3 -18 13 -37 23 -42 10 -5 80 -11 157 -12
110 -1 146 2 177 15 47 21 57 15 25 -14 -15 -13 -18 -19 -8 -16 9 3 21 1 26
-4 15 -15 48 29 48 65 0 24 4 30 18 28 9 -2 17 1 16 5 -4 25 3 41 21 46 11 3
17 1 14 -4 -3 -6 4 -18 15 -28 22 -20 22 -19 -4 -147 -4 -19 -12 -22 -62 -23
-67 -1 -93 5 -93 23 0 20 -25 37 -44 30 -22 -8 -20 -21 4 -27 11 -3 20 -10 20
-16 0 -8 -89 -11 -312 -9 l-313 3 0 24 c0 22 7 27 55 39 30 7 60 18 66 23 17
14 24 76 25 247 1 108 5 152 13 149 6 -2 10 -12 8 -21 -3 -15 0 -15 17 -4 28
17 26 24 -5 32 -22 6 -25 11 -22 36 3 17 1 30 -4 30 -5 0 -8 80 -7 178 2 209
-3 228 -79 264 -26 13 -48 31 -50 41 -3 16 22 17 374 17 208 0 374 -3 371 -7z
m1763 -23 c29 -35 50 -38 75 -10 14 16 15 20 4 24 -8 2 -21 7 -29 9 -8 3 121
6 288 6 l302 1 0 -44 c0 -35 -5 -48 -22 -60 -18 -13 -20 -18 -10 -28 10 -10
15 -10 22 2 6 9 9 -7 8 -48 -1 -60 -2 -62 -28 -62 -23 0 -28 6 -39 51 -7 28
-24 63 -36 77 l-23 27 -190 3 -190 3 -3 -28 c-2 -15 -3 -101 -1 -191 l3 -163
144 3 c172 4 194 13 209 92 9 45 11 47 40 44 l31 -3 3 -182 2 -183 -33 0 c-33
0 -34 2 -46 55 -18 79 -37 87 -208 87 -74 0 -137 -3 -140 -5 -6 -6 -11 -35
-12 -64 -1 -12 -8 -29 -17 -37 -13 -13 -13 -16 -1 -16 11 0 15 -16 17 -62 4
-100 8 -181 9 -206 2 -34 38 -43 186 -43 192 0 247 24 304 135 27 53 38 66 57
66 21 0 24 -5 24 -36 0 -19 -5 -45 -12 -57 -6 -12 -12 -37 -13 -57 -2 -19 -8
-48 -15 -65 -7 -16 -14 -37 -14 -45 -1 -13 -51 -15 -391 -15 l-390 0 -3 26
c-3 22 1 27 21 27 13 0 40 7 60 17 29 14 39 26 48 59 6 22 13 46 14 52 2 7 15
9 28 7 14 -3 33 0 44 6 15 9 12 10 -18 11 -42 0 -53 8 -38 27 9 10 8 13 -4 13
-14 0 -16 37 -17 331 0 323 -1 331 -24 386 -27 65 -49 82 -75 59 -22 -20 -37
-20 -45 0 -10 27 3 34 62 34 51 0 60 -3 82 -30z m1588 5 c-15 -14 -31 -25 -36
-25 -5 0 -14 -11 -20 -25 -7 -16 -8 -25 -2 -25 6 0 4 -13 -5 -30 -9 -16 -12
-30 -8 -30 4 0 2 -5 -5 -12 -17 -17 -15 -28 7 -28 18 0 19 -13 19 -359 0 -406
1 -412 70 -430 20 -6 48 -12 62 -13 19 -2 25 -9 25 -28 l0 -25 -205 -1 c-113
-1 -211 1 -218 4 -7 2 -12 14 -10 26 2 16 14 23 49 31 52 11 77 29 90 62 6 18
15 736 10 837 -1 17 -9 18 -93 14 -130 -6 -138 -13 -200 -166 -10 -26 -18 -32
-38 -30 l-25 3 4 130 c2 72 5 133 8 138 2 4 126 7 276 7 l272 0 -27 -25z m59
19 c-3 -3 -12 -4 -19 -1 -8 3 -5 6 6 6 11 1 17 -2 13 -5z m53 -14 c11 -11 20
-27 20 -36 0 -14 3 -14 15 -4 10 9 15 9 15 1 0 -6 7 -11 15 -11 8 0 15 5 15
10 0 15 33 12 57 -5 14 -10 24 -12 28 -5 15 24 24 5 25 -52 0 -35 1 -83 3
-108 2 -42 0 -45 -25 -48 -30 -4 -39 8 -58 85 -13 50 -54 103 -81 103 -14 0
-21 9 -25 30 -5 21 -12 30 -25 30 -11 0 -19 7 -19 15 0 21 16 19 40 -5z m180
5 c0 -15 -43 -12 -48 3 -3 10 4 13 22 10 15 -2 26 -7 26 -13z m-264 -34 c-4
-5 0 -12 6 -14 7 -3 -2 -6 -20 -6 -28 -1 -31 1 -20 14 14 15 43 21 34 6z
m-5136 -32 c0 -10 -7 -19 -15 -19 -16 0 -19 9 -9 34 8 20 24 11 24 -15z m3460
21 c0 -5 -2 -10 -4 -10 -3 0 -8 5 -11 10 -3 6 -1 10 4 10 6 0 11 -4 11 -10z
m3047 -81 c15 -20 14 -20 -3 -11 -22 13 -94 86 -94 96 0 11 79 -59 97 -85z
m-7780 54 c-9 -9 -19 -14 -22 -11 -3 3 2 13 11 22 9 9 19 14 22 11 3 -3 -2
-13 -11 -22z m1143 -123 c0 -6 11 -15 25 -20 14 -5 25 -13 25 -17 -1 -26 -45
-49 -57 -30 -10 15 -10 77 0 77 4 0 7 -5 7 -10z m60 6 c0 -3 -4 -8 -10 -11 -5
-3 -10 -1 -10 4 0 6 5 11 10 11 6 0 10 -2 10 -4z m-1360 -50 c0 -18 -17 -39
-37 -47 -40 -15 -50 1 -17 28 26 20 54 30 54 19z m126 -60 c-7 -29 -37 -49
-60 -40 -19 7 -21 24 -3 24 7 0 24 12 36 26 26 30 36 26 27 -10z m-216 -41 c0
-8 -7 -15 -15 -15 -8 0 -15 7 -15 15 0 8 7 15 15 15 8 0 15 -7 15 -15z m8270
-406 c0 -5 -7 -9 -15 -9 -15 0 -20 12 -9 23 8 8 24 -1 24 -14z m-170 -9 c0 -5
-4 -10 -9 -10 -5 0 -23 -12 -40 -26 -25 -21 -31 -23 -31 -9 0 33 20 55 50 55
17 0 30 -4 30 -10z m-4754 -27 c7 -10 14 -24 14 -30 0 -21 -17 -15 -23 7 -3
13 -10 18 -21 14 -16 -6 -22 7 -9 19 11 12 25 8 39 -10z m4878 -27 c-5 -13
-46 -36 -64 -36 -19 0 8 45 31 51 29 7 40 3 33 -15z m-8039 -106 c3 -5 2 -10
-4 -10 -5 0 -13 5 -16 10 -3 6 -2 10 4 10 5 0 13 -4 16 -10z m90 -90 c10 -11
14 -20 8 -20 -5 0 -18 9 -28 20 -10 11 -14 20 -8 20 5 0 18 -9 28 -20z m1692
-101 c75 -24 136 -64 191 -125 56 -60 75 -100 68 -135 -3 -16 -1 -29 4 -29 6
0 10 8 10 18 1 33 40 -83 45 -133 3 -27 8 -74 11 -103 4 -31 2 -57 -4 -65 -7
-8 -7 -18 -2 -27 5 -8 5 -22 -1 -32 -6 -10 -7 -27 -4 -37 7 -22 -18 -51 -43
-51 -16 -1 -16 -2 1 -14 22 -17 22 -41 -2 -65 -11 -11 -17 -22 -14 -25 11 -11
-68 -115 -119 -157 -108 -91 -309 -121 -448 -67 -69 27 -100 48 -155 103 -33
34 -71 82 -85 108 l-24 46 22 21 c23 22 29 40 12 40 -5 0 -10 5 -10 10 0 6 8
10 17 10 9 0 13 -3 10 -7 -12 -11 14 -33 40 -33 23 0 29 -7 35 -44 3 -18 17
-36 90 -119 38 -44 139 -102 172 -99 11 0 24 -6 30 -14 9 -12 23 -8 94 26 108
53 167 112 201 198 13 32 26 48 42 52 28 7 34 23 14 40 -23 19 -18 33 11 26
22 -6 25 -4 22 16 -2 15 -9 22 -21 22 -20 -2 -23 16 -5 34 8 8 9 15 3 20 -6 4
-10 12 -10 17 -1 66 -17 219 -26 246 -42 127 -101 208 -180 248 -87 43 -153
49 -236 20 -89 -31 -139 -82 -181 -183 -18 -41 -32 -83 -32 -91 0 -9 -7 -18
-15 -21 -10 -4 -13 -13 -9 -26 3 -10 0 -25 -6 -33 -8 -10 -9 -19 -3 -27 15
-20 8 -102 -10 -128 -12 -18 -14 -27 -5 -37 7 -9 7 -17 -1 -27 -6 -7 -9 -21
-5 -30 4 -10 1 -16 -7 -16 -7 0 -20 -7 -30 -16 -19 -17 -39 -12 -39 11 0 7 13
16 29 20 16 3 32 13 35 21 6 17 -3 18 -39 4 -40 -15 -50 3 -54 97 -9 258 118
468 329 544 66 24 209 22 287 -2z m1054 -8 c126 -14 230 -76 275 -163 19 -37
31 -163 17 -180 -6 -7 -11 -25 -11 -39 1 -43 -64 -128 -120 -159 -63 -34 -99
-41 -247 -49 l-120 -6 0 -162 c0 -206 3 -212 128 -238 22 -4 28 -11 25 -28 -3
-21 -7 -22 -151 -25 -100 -2 -146 1 -142 8 3 5 2 10 -4 10 -5 0 -13 -4 -16
-10 -10 -17 -102 -12 -109 5 -9 24 4 45 29 45 69 0 106 42 107 119 0 40 4 54
19 62 10 5 19 15 19 22 0 8 -3 8 -9 -2 -19 -30 -24 20 -23 246 0 208 2 237 17
253 16 18 16 20 1 26 -24 9 -20 59 7 85 17 17 18 21 4 16 -14 -5 -22 3 -37 37
-20 48 -35 60 -92 70 -33 6 -38 10 -38 35 l0 29 198 1 c108 0 231 -3 273 -8z
m1424 3 c12 -5 14 -202 2 -221 -12 -19 -57 -12 -57 8 0 30 -41 109 -63 121
-15 9 -76 13 -202 13 l-180 0 -3 -187 -2 -188 32 -1 c214 -7 277 -4 287 14 6
9 18 17 26 17 16 0 18 5 19 64 1 33 4 39 24 41 12 1 27 -4 32 -10 7 -8 9 -80
8 -186 l-3 -174 -25 3 c-33 3 -38 10 -43 54 -6 57 -31 88 -72 88 -28 0 -33 3
-28 16 4 12 2 15 -8 12 -8 -3 -13 -11 -11 -17 1 -6 -1 -10 -5 -10 -5 1 -59 1
-120 0 l-113 -1 0 -40 c0 -26 -7 -47 -19 -59 -17 -17 -17 -21 -4 -34 17 -17
20 -42 22 -178 1 -94 1 -96 28 -108 18 -8 75 -12 165 -12 110 1 146 5 181 20
41 18 117 92 117 115 0 17 53 66 72 66 10 0 18 -4 18 -9 0 -17 -29 -146 -46
-210 l-17 -62 -396 3 c-381 3 -396 4 -396 22 0 21 10 27 75 47 38 12 47 20 57
49 15 46 18 755 3 810 -11 39 -29 52 -98 65 -35 7 -48 25 -38 50 5 14 54 15
388 14 210 -1 387 -3 393 -5z m990 -19 c78 -26 158 -100 175 -163 28 -105 5
-217 -56 -274 -35 -32 -139 -88 -165 -88 -30 0 -23 -22 32 -96 28 -38 55 -77
60 -86 28 -52 174 -235 197 -247 15 -8 43 -17 62 -20 29 -5 36 -11 38 -34 l3
-27 -114 0 -113 0 -60 82 c-32 45 -67 94 -76 108 -9 14 -31 43 -48 65 -16 22
-33 48 -36 58 -4 9 -10 17 -14 17 -4 0 -30 33 -56 74 -45 69 -52 75 -89 79
-22 3 -55 8 -72 12 -21 4 -33 2 -33 -4 0 -6 8 -11 19 -11 18 0 19 -12 23 -177
3 -98 8 -186 13 -196 10 -24 61 -49 101 -50 30 -1 34 -4 34 -29 l0 -28 -207 2
c-199 3 -208 4 -208 23 0 14 12 24 43 35 100 37 103 52 98 490 -3 237 -8 366
-16 388 -12 33 -59 62 -102 62 -21 0 -33 22 -24 46 5 14 36 15 269 12 225 -3
270 -7 322 -23z m1081 -2 c6 -16 30 -73 52 -128 22 -55 57 -145 77 -200 20
-55 43 -114 51 -132 8 -17 14 -34 14 -38 0 -4 11 -33 24 -64 13 -31 48 -119
78 -195 58 -153 102 -216 150 -216 18 0 27 -7 31 -22 3 -12 4 -25 1 -30 -3 -4
-88 -8 -189 -8 -191 0 -204 3 -183 43 6 12 21 17 48 17 70 0 78 53 26 181 -31
77 -36 84 -67 91 -60 13 -339 2 -353 -13 -7 -8 -29 -53 -49 -100 -51 -120 -44
-140 51 -165 6 -2 12 -15 12 -29 l0 -26 -147 3 -148 3 -3 28 c-3 23 0 27 24
27 15 0 35 9 45 21 25 29 109 203 124 257 5 17 12 21 26 17 22 -7 26 10 5 18
-11 5 -11 14 4 59 17 49 62 161 96 235 8 17 14 40 14 50 0 10 4 23 9 29 8 8
22 43 77 195 40 112 79 147 100 92z m-6121 7 c3 -5 2 -10 -4 -10 -5 0 -13 5
-16 10 -3 6 -2 10 4 10 5 0 13 -4 16 -10z m7475 -20 c0 -5 -5 -10 -11 -10 -5
0 -7 5 -4 10 3 6 8 10 11 10 2 0 4 -4 4 -10z m-100 -105 c-7 -8 -17 -15 -23
-15 -6 0 -2 7 9 15 25 19 30 19 14 0z m-110 -109 c0 -3 -4 -8 -10 -11 -5 -3
-10 -1 -10 4 0 6 5 11 10 11 6 0 10 -2 10 -4z m1627 -362 c-3 -3 -12 -4 -19
-1 -8 3 -5 6 6 6 11 1 17 -2 13 -5z m-1697 -79 c-7 -9 -15 -13 -17 -11 -7 7 7
26 19 26 6 0 6 -6 -2 -15z m-6085 -26 c-4 -5 -13 -9 -22 -9 -13 0 -13 3 -3 15
13 15 35 11 25 -6z m5855 -9 c0 -5 -4 -10 -10 -10 -5 0 -10 5 -10 10 0 6 5 10
10 10 6 0 10 -4 10 -10z m-4281 -410 c69 -20 114 -52 198 -140 24 -24 43 -50
43 -55 0 -6 -9 -21 -21 -33 -17 -19 -18 -23 -5 -28 8 -3 18 -14 21 -24 3 -11
17 -20 33 -22 24 -3 28 -9 39 -63 16 -80 18 -225 3 -305 -14 -77 -53 -162 -96
-209 l-32 -34 -31 32 c-35 36 -37 44 -16 65 8 8 15 23 15 33 0 10 7 46 16 78
29 111 24 317 -11 398 -5 13 -2 17 14 17 28 0 27 18 -3 30 -26 10 -56 48 -75
97 -7 18 -22 35 -32 38 -10 4 -19 10 -19 15 0 5 -26 21 -57 37 -51 24 -68 28
-138 26 -99 -3 -99 -2 -163 -38 -47 -27 -58 -39 -92 -106 -84 -165 -102 -336
-55 -524 14 -55 25 -108 25 -117 0 -10 6 -18 14 -18 12 0 66 -67 66 -82 0 -3
-9 -8 -20 -11 -26 -7 -26 -23 1 -30 24 -6 49 1 49 14 0 5 14 2 31 -7 17 -9 54
-23 82 -31 46 -13 58 -13 136 3 48 10 93 26 103 36 10 10 24 18 31 18 6 0 20
18 30 40 20 42 37 52 37 22 0 -10 5 -23 10 -28 7 -7 6 -19 -4 -38 -15 -29 -23
-31 -44 -13 -15 12 -28 -2 -38 -43 -10 -40 -22 -48 -81 -60 -82 -17 -190 -13
-264 10 -68 21 -164 86 -164 110 0 8 -7 18 -16 22 -21 8 -64 68 -50 68 6 0 11
5 11 10 0 6 -8 10 -18 10 -22 0 -55 62 -73 135 -15 64 -16 287 0 341 6 23 23
53 37 69 14 15 23 33 20 40 -7 19 15 43 43 47 23 3 24 4 8 20 -19 18 -20 15
60 101 28 30 121 77 181 92 71 18 171 12 261 -15z m3648 18 c4 -7 8 -17 9 -23
5 -34 15 -153 19 -228 l6 -88 -28 3 c-20 2 -29 10 -33 28 -12 57 -74 161 -113
193 -62 48 -80 55 -141 52 -65 -3 -120 -37 -141 -89 -23 -56 7 -152 66 -208
15 -14 122 -91 198 -143 24 -16 46 -37 48 -46 3 -10 12 -15 22 -12 22 6 97
-75 128 -139 45 -88 40 -179 -9 -191 -17 -5 -18 -9 -8 -28 10 -18 9 -24 -6
-32 -11 -6 -31 -10 -46 -8 -31 3 -40 -22 -13 -33 27 -10 -1 -45 -53 -68 -57
-26 -170 -34 -232 -17 -63 17 -100 37 -100 54 0 22 -18 18 -25 -5 -3 -11 -10
-20 -15 -20 -5 0 -11 -9 -15 -19 -6 -20 -36 -33 -52 -22 -6 3 -13 19 -17 35
-6 25 -1 34 47 82 l55 53 20 -24 c11 -13 22 -34 24 -47 2 -19 9 -23 33 -21 17
0 45 -3 63 -9 23 -7 49 -6 85 2 84 19 105 32 129 77 14 26 30 43 40 43 22 0
24 16 3 24 -9 3 -15 18 -15 37 0 17 -12 54 -27 81 -28 51 -76 91 -257 213
-117 79 -150 110 -143 135 4 14 0 20 -12 20 -27 0 -41 43 -41 125 0 68 2 77
30 108 17 19 30 42 30 51 0 24 66 82 109 95 74 22 180 9 297 -36 9 -3 14 2 14
14 0 37 49 59 67 31z m-1380 -43 c8 -22 11 -50 8 -62 -4 -17 -2 -21 10 -17 9
4 17 -1 21 -12 17 -47 97 -252 110 -281 8 -17 14 -36 14 -42 0 -6 4 -19 10
-29 5 -9 19 -42 31 -72 11 -30 30 -77 41 -105 12 -27 21 -62 22 -77 1 -16 7
-28 14 -28 6 0 12 -8 12 -17 0 -10 7 -31 15 -46 28 -54 35 -98 20 -114 -15
-14 -20 -33 -9 -33 3 0 12 7 21 15 16 17 33 12 33 -10 0 -17 50 -45 80 -45 11
0 20 -3 21 -7 0 -5 2 -15 4 -25 4 -22 -30 -27 -195 -27 -164 0 -180 3 -180 36
0 17 5 24 18 22 9 -2 34 3 55 10 34 12 37 15 37 51 0 22 -6 54 -14 72 -8 18
-19 52 -25 75 -7 24 -23 54 -36 69 -19 21 -27 24 -44 15 -11 -7 -84 -11 -176
-11 -148 0 -157 -1 -162 -20 -3 -11 -9 -20 -14 -20 -5 0 -9 -6 -9 -14 0 -8
-12 -38 -27 -67 -32 -62 -35 -135 -5 -146 9 -4 23 -15 30 -25 7 -10 20 -18 29
-18 31 0 1 -15 -35 -18 -188 -13 -252 -9 -252 18 0 9 3 19 6 23 10 9 34 -4 34
-19 0 -8 4 -14 8 -14 14 0 31 22 26 35 -6 14 41 87 49 78 4 -3 3 -11 0 -16
-15 -24 -11 -55 6 -60 13 -3 22 5 33 29 10 21 12 37 6 40 -5 4 -7 15 -5 26 3
11 0 21 -9 25 -18 7 -18 17 0 56 12 27 110 286 148 392 6 17 18 38 26 48 8 9
13 20 9 23 -3 3 4 27 15 52 11 26 26 67 35 92 8 25 33 89 56 143 45 108 61
118 84 52z m-879 21 c2 -3 6 -25 8 -48 3 -32 0 -46 -13 -55 -16 -12 -16 -14 2
-26 14 -11 18 -28 19 -78 1 -61 0 -64 -23 -67 -27 -4 -51 20 -51 51 0 35 -51
128 -76 137 -13 5 -24 14 -24 19 0 14 -160 5 -173 -8 -6 -6 -10 -48 -8 -97 l2
-87 -25 5 c-30 6 -58 -18 -37 -32 8 -4 11 -16 7 -28 -4 -11 -2 -23 4 -27 18
-11 10 -25 -15 -25 -28 0 -32 -12 -11 -29 20 -17 41 14 41 62 0 49 21 60 28
15 3 -18 6 -156 7 -306 1 -289 2 -282 -43 -243 -17 14 -18 13 -13 -14 8 -41
-3 -85 -20 -85 -22 0 -16 -17 8 -24 17 -4 30 2 46 19 28 30 25 30 65 3 18 -13
33 -23 33 -23 1 0 5 -11 9 -24 4 -15 3 -21 -3 -17 -5 3 -22 -1 -38 -8 -28 -14
-51 -14 -276 -7 -41 1 -48 4 -48 21 0 23 34 40 78 40 37 0 100 65 86 89 -5 9
-8 52 -7 96 1 44 2 89 2 100 -1 136 4 240 10 245 15 10 21 40 7 40 -8 0 -16
12 -19 26 -3 19 2 32 22 50 14 13 21 24 15 24 -5 0 -15 -5 -22 -12 -9 -9 -12
-1 -14 37 -1 28 -1 59 0 70 3 33 3 88 0 120 l-3 30 -69 -2 c-83 -2 -149 -19
-172 -44 -9 -10 -27 -49 -39 -86 -20 -63 -24 -68 -51 -68 -33 0 -31 -14 -26
185 l2 89 98 3 c148 5 714 0 720 -6z m-2802 -7 c4 -6 11 -5 21 2 9 8 17 9 21
3 11 -16 41 -24 47 -14 4 6 1 10 -6 10 -7 0 -10 3 -6 6 3 4 14 3 24 -1 10 -4
47 -9 83 -10 100 -3 179 -50 235 -140 25 -39 28 -202 5 -229 -8 -10 -19 -28
-25 -40 -6 -11 -19 -21 -30 -21 -14 0 -19 -6 -17 -18 2 -10 -7 -21 -23 -29
-14 -6 -25 -15 -25 -19 0 -5 -27 -14 -60 -21 -60 -12 -71 -23 -47 -47 10 -10
8 -15 -7 -27 -19 -13 -11 -20 18 -15 17 3 40 -25 62 -76 13 -29 29 -53 36 -54
13 0 63 -61 127 -154 42 -61 56 -72 99 -81 33 -6 72 -48 58 -61 -9 -9 -146
-11 -152 -2 -2 3 -15 4 -28 2 -19 -4 -32 2 -50 23 -14 16 -26 35 -26 42 0 6
-4 12 -9 12 -5 0 -18 15 -29 32 -15 23 -18 35 -9 40 7 4 2 10 -14 17 -24 9
-59 63 -59 91 0 7 -10 21 -21 31 -19 16 -20 19 -5 25 26 10 20 51 -8 56 -15 3
-27 0 -30 -8 -9 -23 -19 -16 -70 51 -47 62 -50 65 -92 65 -53 0 -60 -12 -59
-95 0 -41 -5 -64 -15 -73 -13 -11 -13 -13 3 -23 20 -12 25 -99 5 -99 -13 0
-48 -29 -48 -40 0 -4 13 -6 29 -4 24 3 31 -1 37 -19 13 -37 3 -80 -23 -104
-27 -26 -25 -25 -108 -23 -59 2 -82 8 -57 17 6 3 12 12 12 20 0 12 7 14 34 9
31 -6 36 -3 55 27 28 45 27 58 -9 92 -29 28 -40 65 -20 65 6 0 10 11 10 25 0
14 -4 25 -10 25 -11 0 -14 109 -4 159 4 17 13 31 20 31 16 0 19 16 4 25 -5 3
-10 17 -10 31 0 13 -4 24 -10 24 -16 0 -11 48 6 58 14 8 14 13 4 32 -9 17 -9
24 0 30 7 4 9 22 6 46 -3 21 -3 31 0 22 6 -21 20 -23 31 -5 12 20 40 27 52 13
6 -6 11 -52 13 -102 l3 -89 103 4 c89 3 102 1 102 -13 0 -9 -8 -16 -19 -16
-24 0 -37 -18 -24 -31 6 -6 19 -3 34 9 13 11 39 27 57 36 37 19 42 36 10 37
l-23 0 23 10 c27 10 72 60 89 98 28 61 10 186 -32 219 -14 11 -25 26 -25 35 0
9 -10 14 -27 14 -45 -1 -157 26 -175 41 -10 8 -18 10 -18 5 0 -6 -12 -14 -27
-18 -37 -9 -52 -33 -53 -80 0 -45 -4 -52 -43 -82 -16 -12 -23 -24 -17 -28 5
-3 10 -10 10 -15 0 -5 -15 -1 -32 8 -48 27 -54 70 -15 112 27 29 28 33 14 42
-22 12 -22 29 -1 21 14 -5 15 -3 5 15 -17 33 -41 28 -41 -8 0 -35 -6 -37 -28
-10 -10 11 -39 26 -67 33 -40 9 -50 16 -51 33 -1 21 3 21 162 22 98 0 166 -3
170 -9z m5834 -399 c0 -5 -13 -16 -30 -25 -17 -9 -30 -11 -30 -5 0 5 6 10 14
10 8 0 18 9 21 20 6 19 25 19 25 0z m1785 -30 c3 -6 -1 -7 -9 -4 -18 7 -21 14
-7 14 6 0 13 -4 16 -10z m-1787 -32 c-7 -20 -38 -35 -46 -22 -4 7 -16 14 -27
17 -12 4 -10 5 8 3 15 -2 27 1 27 5 0 5 9 9 21 9 11 0 19 -5 17 -12z m-120
-23 c-3 -3 -13 -2 -22 1 -14 5 -15 9 -4 15 13 8 36 -6 26 -16z m35 -8 c3 -8
-3 -14 -15 -14 -16 -2 -17 1 -8 13 15 17 17 17 23 1z m-6386 -69 c-3 -7 -5 -2
-5 12 0 14 2 19 5 13 2 -7 2 -19 0 -25z m0 -130 c-2 -13 -4 -3 -4 22 0 25 2
35 4 23 2 -13 2 -33 0 -45z m5165 -60 c-2 -19 2 -28 11 -28 14 0 33 -33 47
-82 6 -21 5 -28 -5 -28 -7 0 -15 9 -18 19 -3 12 -18 23 -38 28 -36 10 -46 30
-48 91 -1 31 1 33 27 30 23 -3 27 -7 24 -30z m993 -70 c4 -3 -4 -9 -17 -13
-13 -4 -31 -14 -40 -22 -9 -8 -22 -12 -27 -8 -16 9 -13 33 6 43 18 10 68 10
78 0z m90 2 c3 -5 1 -10 -4 -10 -6 0 -11 -13 -11 -29 0 -28 -24 -60 -37 -48
-7 7 -11 78 -5 90 5 11 50 9 57 -3z m-6095 -52 c0 -25 -30 -52 -44 -38 -8 8
-7 13 3 19 8 5 11 16 6 30 -9 30 4 46 21 24 7 -10 14 -26 14 -35z m-140 -84
c-18 -33 -33 -19 -25 25 10 52 17 59 28 27 6 -19 5 -35 -3 -52z m5178 57 c3
-9 -2 -11 -17 -6 -14 4 -21 2 -21 -7 0 -9 -3 -9 -10 2 -7 11 -5 17 8 22 22 8
35 5 40 -11z m908 -37 c-7 -28 -81 -79 -128 -89 -24 -6 -29 -11 -24 -28 3 -14
-4 -32 -19 -49 -30 -34 -35 -35 -35 -3 0 14 4 25 9 25 4 0 12 15 17 32 8 27
21 38 71 63 51 25 64 37 78 70 15 34 18 37 27 22 5 -10 7 -30 4 -43z m-5753
-72 c12 -13 14 -21 6 -29 -17 -17 -39 -4 -39 23 0 29 11 31 33 6z m-323 -21
c0 -14 -18 -23 -30 -16 -6 4 -8 11 -5 16 8 12 35 12 35 0z m667 -7 c-3 -3 -12
-4 -19 -1 -8 3 -5 6 6 6 11 1 17 -2 13 -5z m5743 -4 c0 -5 -4 -10 -9 -10 -6 0
-13 5 -16 10 -3 6 1 10 9 10 9 0 16 -4 16 -10z m40 -230 c0 -5 -2 -10 -4 -10
-3 0 -8 5 -11 10 -3 6 -1 10 4 10 6 0 11 -4 11 -10z m-124 -56 c-1 -25 -29
-34 -41 -13 -4 5 -20 9 -35 7 -45 -5 -36 16 12 28 54 13 66 9 64 -22z m-5801
16 c3 -5 -1 -10 -10 -10 -9 0 -13 5 -10 10 3 6 8 10 10 10 2 0 7 -4 10 -10z
m150 0 c4 -6 -9 -10 -32 -9 -34 1 -35 2 -13 9 35 11 38 11 45 0z m-98 -6 c-3
-3 -12 -4 -19 -1 -8 3 -5 6 6 6 11 1 17 -2 13 -5z m180 0 c-3 -3 -12 -4 -19
-1 -8 3 -5 6 6 6 11 1 17 -2 13 -5z m70 0 c-3 -3 -12 -4 -19 -1 -8 3 -5 6 6 6
11 1 17 -2 13 -5z m4510 0 c-3 -3 -12 -4 -19 -1 -8 3 -5 6 6 6 11 1 17 -2 13
-5z m70 0 c-3 -3 -12 -4 -19 -1 -8 3 -5 6 6 6 11 1 17 -2 13 -5z m1038 -13 c3
-6 -4 -15 -15 -21 -16 -8 -20 -8 -20 3 0 25 23 36 35 18z m-245 -35 c0 -16
-18 -31 -27 -22 -8 8 5 36 17 36 5 0 10 -6 10 -14z m-2400 -636 c0 -5 -5 -10
-11 -10 -5 0 -7 5 -4 10 3 6 8 10 11 10 2 0 4 -4 4 -10z m-1223 -16 c-3 -3
-12 -4 -19 -1 -8 3 -5 6 6 6 11 1 17 -2 13 -5z m48 -52 c-3 -3 -11 0 -18 7 -9
10 -8 11 6 5 10 -3 15 -9 12 -12z m1075 -37 c-7 -9 -15 -13 -17 -11 -7 7 7 26
19 26 6 0 6 -6 -2 -15z m165 4 c11 -17 -1 -21 -15 -4 -8 9 -8 15 -2 15 6 0 14
-5 17 -11z m-1155 -44 c13 -14 18 -25 12 -25 -14 0 -52 31 -52 42 0 15 17 8
40 -17z m1310 4 c0 -5 -11 -9 -25 -9 -28 0 -34 16 -7 23 20 4 32 -1 32 -14z
m-55 -30 c8 -13 6 -15 -22 -23 -17 -5 -23 -3 -23 7 0 14 13 24 32 26 4 1 10
-4 13 -10z m-475 -55 c0 -10 -6 -9 -27 2 -16 7 -36 14 -45 14 -10 0 -18 6 -18
14 0 8 8 16 18 18 20 5 72 -30 72 -48z m61 -50 l24 -27 -27 7 c-16 4 -28 2
-28 -3 0 -15 -39 -33 -57 -27 -12 5 -9 13 18 41 19 19 37 35 40 35 3 0 16 -12
30 -26z m4417 -117 c3 -52 1 -57 -18 -57 -18 0 -20 6 -20 61 0 52 2 60 18 57
13 -2 18 -15 20 -61z m272 43 c0 -5 -4 -10 -9 -10 -6 0 -13 5 -16 10 -3 6 1
10 9 10 9 0 16 -4 16 -10z m-10002 -104 c-2 -56 -10 -75 -30 -76 -10 0 -11
144 -1 153 3 4 12 2 20 -4 9 -8 13 -31 11 -73z m9726 -32 c10 -25 7 -114 -4
-135 -20 -36 -30 -19 -30 50 0 71 6 101 20 101 4 0 11 -7 14 -16z m86 -43 c0
-17 5 -33 10 -36 13 -8 13 -42 0 -50 -18 -11 -42 41 -34 79 8 43 24 48 24 7z
m-9825 -51 c-4 -11 -2 -20 4 -20 6 0 11 -21 11 -49 0 -44 -2 -49 -20 -44 -18
5 -20 13 -18 69 1 46 6 64 16 64 9 0 11 -7 7 -20z m4936 -75 c0 -13 -41 -19
-41 -7 0 11 20 22 33 18 5 -1 8 -6 8 -11z m70 -1 c19 -10 42 -24 52 -32 16
-15 16 -16 -2 -34 -11 -10 -22 -18 -23 -18 -2 0 -12 16 -22 35 -11 19 -25 35
-33 35 -7 0 -13 7 -13 15 0 19 0 19 41 -1z m4838 -29 c-2 -25 -5 -45 -8 -45
-15 1 -26 17 -29 42 -4 33 4 48 24 48 11 0 14 -11 13 -45z m-4731 -11 c-16
-16 -38 -12 -38 6 0 8 41 19 49 13 3 -2 -2 -11 -11 -19z m4732 -402 c0 -193
-4 -331 -9 -323 -7 11 -9 11 -14 0 -4 -12 -7 -11 -16 1 -13 18 -9 34 7 36 25
3 26 6 7 13 -19 8 -20 19 -23 212 -2 111 0 251 4 311 6 101 8 107 25 97 18 -9
19 -27 19 -347z m-4660 338 c0 -5 -4 -10 -10 -10 -5 0 -10 5 -10 10 0 6 5 10
10 10 6 0 10 -4 10 -10z m4554 -6 c3 -9 6 -159 6 -333 0 -276 -2 -318 -15
-318 -8 0 -15 1 -15 1 -1 1 -4 151 -7 334 -5 295 -4 332 9 332 9 0 19 -7 22
-16z m-4609 -34 c3 -5 -3 -10 -15 -10 -12 0 -18 5 -15 10 3 6 10 10 15 10 5 0
12 -4 15 -10z m4331 -15 c-3 -20 -16 -31 -16 -13 0 13 8 28 16 28 1 0 1 -7 0
-15z m-9446 -54 c0 -11 -5 -21 -10 -23 -7 -2 -6 -14 2 -34 13 -36 6 -64 -17
-64 -21 0 -19 106 2 114 8 3 11 10 8 16 -3 5 -1 10 4 10 6 0 11 -9 11 -19z
m-6 -197 c8 -62 8 -249 -1 -241 -3 4 -12 2 -19 -4 -19 -15 -27 57 -20 182 3
57 5 105 6 107 0 1 6 2 14 2 8 0 16 -17 20 -46z m9769 -383 c6 -6 20 -11 30
-11 12 0 17 -5 14 -14 -3 -8 -3 -17 1 -21 4 -4 7 -10 8 -13 0 -4 4 -15 8 -24
11 -25 0 -49 -19 -42 -8 4 -18 24 -21 45 l-7 39 -103 0 c-57 0 -104 4 -104 8
0 17 26 41 50 44 45 7 131 1 143 -11z m-168 -91 c-7 -21 10 -28 18 -7 3 6 6
-17 6 -52 1 -54 -1 -62 -15 -57 -9 3 -20 6 -25 6 -10 0 -12 73 -3 108 4 12 11
22 16 22 5 0 6 -9 3 -20z m233 -84 c6 -29 -7 -66 -21 -60 -14 5 -22 58 -11 75
9 15 28 5 32 -15z m-5728 -57 c0 -33 -2 -34 -33 -15 -23 15 -71 18 -275 16
-121 -1 -142 2 -142 20 0 10 230 17 368 12 l82 -4 0 -29z m1815 28 l120 -2 -3
-24 c-3 -33 -5 -34 -37 -17 -22 11 -71 15 -217 15 -105 0 -192 2 -195 5 -3 3
-3 12 0 20 5 13 22 15 109 10 57 -3 157 -7 223 -7z"/>
<path d="M5200 9979 c7 -11 14 -18 17 -15 8 8 -5 36 -17 36 -7 0 -7 -6 0 -21z"/>
<path d="M5495 9979 c-9 -14 -2 -20 14 -10 8 6 9 11 3 15 -6 3 -14 1 -17 -5z"/>
<path d="M5283 9884 c-37 -28 -42 -51 -16 -70 32 -23 5 -27 -31 -4 -20 12 -36
17 -36 12 0 -6 -11 -24 -25 -40 -22 -26 -23 -32 -12 -55 15 -32 38 -43 52 -24
5 7 24 22 42 32 31 18 32 18 78 -2 l46 -20 35 35 c18 18 31 38 28 43 -7 12
-114 113 -122 116 -4 2 -22 -9 -39 -23z m97 -54 c0 -5 -2 -10 -4 -10 -3 0 -8
5 -11 10 -3 6 -1 10 4 10 6 0 11 -4 11 -10z m-25 -30 c-3 -5 -13 -10 -21 -10
-8 0 -14 5 -14 10 0 6 9 10 21 10 11 0 17 -4 14 -10z"/>
<path d="M5474 9733 c-3 -11 -17 -26 -30 -32 -27 -12 -35 -61 -10 -61 19 0 31
-19 19 -31 -6 -6 -15 -4 -23 6 -20 24 -59 18 -92 -15 -29 -30 -30 -32 -12 -45
18 -14 18 -14 -6 -16 -16 -1 -11 -4 15 -8 31 -5 39 -10 37 -23 -2 -11 3 -18
12 -18 9 0 23 -12 33 -27 10 -16 28 -37 40 -48 13 -11 23 -25 23 -30 0 -5 9
-19 21 -31 27 -28 16 -53 -12 -28 -10 9 -19 24 -19 33 -1 23 -70 54 -88 39 -7
-6 -36 -19 -64 -29 -48 -16 -53 -16 -115 3 -50 15 -71 17 -94 9 -28 -10 -30
-9 -27 12 3 20 8 22 68 21 45 0 76 -6 97 -19 30 -17 31 -17 51 3 12 12 28 19
36 16 8 -3 20 -3 25 1 16 9 -29 84 -61 101 -25 13 -28 12 -64 -26 -40 -42 -70
-51 -81 -23 -4 11 4 25 27 45 19 15 39 28 45 28 6 0 11 8 11 18 1 9 3 23 5 31
2 8 -4 15 -16 16 -11 2 -29 6 -41 10 -15 5 -32 -5 -69 -39 -44 -42 -76 -58
-75 -38 1 12 37 52 48 52 5 0 21 15 34 33 22 28 23 35 11 57 -7 14 -19 24 -28
22 -22 -4 -215 -199 -215 -217 0 -8 -7 -15 -16 -15 -9 0 -68 -51 -131 -112
-150 -148 -141 -140 -153 -133 -5 3 -10 -1 -10 -10 0 -20 -69 -95 -87 -95 -7
0 -13 -6 -13 -13 0 -8 -37 -47 -82 -88 -121 -110 -200 -197 -181 -201 4 -1 73
-2 153 -4 167 -2 230 -7 247 -17 7 -5 22 -3 33 3 22 12 762 16 810 4 14 -3 30
-5 35 -4 6 0 125 5 265 9 322 10 560 5 588 -12 9 -6 42 4 60 18 1 1 -128 133
-288 294 -159 160 -290 298 -290 305 0 19 -66 76 -88 76 -22 0 -92 -57 -92
-75 0 -8 6 -18 13 -22 6 -5 32 -31 57 -58 50 -55 30 -43 -38 23 -24 23 -48 42
-52 42 -5 0 -23 -16 -41 -35 -30 -31 -59 -46 -59 -29 0 17 43 74 59 79 16 5
14 11 -20 44 -22 21 -39 43 -39 49 0 6 -12 17 -27 24 -36 18 -41 38 -9 38 16
0 31 -9 41 -24 9 -13 37 -40 62 -60 36 -28 49 -33 64 -25 11 5 19 16 19 23 0
8 7 16 15 20 25 9 18 22 -47 87 -158 156 -168 164 -174 142z m-458 -265 c4 -6
2 -14 -5 -16 -7 -2 -23 -16 -36 -30 -24 -25 -25 -25 -45 -7 -23 21 -27 40 -6
32 8 -3 22 3 32 14 19 21 49 25 60 7z m-6 -95 c14 -6 33 -14 43 -17 27 -9 20
-26 -11 -26 -27 0 -48 15 -67 49 -4 7 -4 12 1 9 5 -2 20 -9 34 -15z m837 -162
c23 -24 27 -31 18 -31 -10 0 -75 63 -75 72 0 12 23 -5 57 -41z m-1087 19 c0
-5 -5 -10 -11 -10 -5 0 -7 5 -4 10 3 6 8 10 11 10 2 0 4 -4 4 -10z m-132 -135
c-48 -45 -62 -45 -18 0 19 19 39 35 44 35 6 0 -6 -16 -26 -35z m1307 15 c3 -6
-1 -7 -9 -4 -18 7 -21 14 -7 14 6 0 13 -4 16 -10z m-1375 -80 c0 -5 -9 -14
-20 -20 -24 -13 -26 -7 -4 14 18 18 24 20 24 6z m1475 -18 c-3 -3 -11 0 -18 7
-9 10 -8 11 6 5 10 -3 15 -9 12 -12z m-1545 -52 c0 -5 -4 -10 -10 -10 -5 0
-10 5 -10 10 0 6 5 10 10 10 6 0 10 -4 10 -10z"/>
<path d="M5860 9495 c-10 -12 -8 -21 14 -50 15 -19 31 -35 37 -35 15 0 10 13
-18 42 -21 22 -23 28 -10 28 9 0 17 7 17 15 0 19 -24 19 -40 0z"/>
<path d="M5798 9483 c7 -3 16 -2 19 1 4 3 -2 6 -13 5 -11 0 -14 -3 -6 -6z"/>
<path d="M5970 9460 c0 -5 9 -10 20 -10 11 0 20 5 20 10 0 6 -9 10 -20 10 -11
0 -20 -4 -20 -10z"/>
<path d="M6480 8880 c0 -5 7 -10 16 -10 8 0 12 5 9 10 -3 6 -10 10 -16 10 -5
0 -9 -4 -9 -10z"/>
<path d="M6560 8875 c0 -16 16 -20 24 -6 3 5 -1 11 -9 15 -9 3 -15 0 -15 -9z"/>
<path d="M4130 8860 c0 -5 4 -10 9 -10 6 0 13 5 16 10 3 6 -1 10 -9 10 -9 0
-16 -4 -16 -10z"/>
<path d="M6595 8840 c-3 -5 -1 -10 4 -10 6 0 11 5 11 10 0 6 -2 10 -4 10 -3 0
-8 -4 -11 -10z"/>
<path d="M7421 8767 c-34 -20 -34 -21 -10 -29 19 -7 27 -4 41 14 33 43 22 48
-31 15z"/>
<path d="M8301 8770 c-12 -11 -27 -17 -32 -14 -5 3 -9 0 -9 -6 0 -20 52 -6 68
18 18 27 5 28 -27 2z"/>
<path d="M2956 8771 c-4 -7 -5 -15 -2 -18 9 -9 19 4 14 18 -4 11 -6 11 -12 0z"/>
<path d="M3780 8766 c0 -8 5 -18 10 -21 6 -3 10 3 10 14 0 12 -4 21 -10 21 -5
0 -10 -6 -10 -14z"/>
<path d="M4650 8770 c0 -5 5 -10 10 -10 6 0 10 5 10 10 0 6 -4 10 -10 10 -5 0
-10 -4 -10 -10z"/>
<path d="M6390 8764 c0 -8 5 -12 10 -9 6 4 8 11 5 16 -9 14 -15 11 -15 -7z"/>
<path d="M6431 8764 c0 -11 3 -14 6 -6 3 7 2 16 -1 19 -3 4 -6 -2 -5 -13z"/>
<path d="M6571 8764 c-7 -8 -19 -13 -27 -10 -7 3 -16 1 -19 -4 -4 -6 7 -10 22
-10 17 0 33 8 41 20 14 23 3 26 -17 4z"/>
<path d="M7242 8768 c6 -18 28 -21 28 -4 0 9 -7 16 -16 16 -9 0 -14 -5 -12
-12z"/>
<path d="M7290 8765 c0 -8 5 -15 10 -15 6 0 10 7 10 15 0 8 -4 15 -10 15 -5 0
-10 -7 -10 -15z"/>
<path d="M7922 8736 c7 -8 15 -12 17 -11 5 6 -10 25 -20 25 -5 0 -4 -6 3 -14z"/>
<path d="M2857 8723 c-11 -10 -8 -43 3 -43 6 0 10 4 10 9 0 5 3 16 6 25 6 16
-7 22 -19 9z"/>
<path d="M7190 8720 c-13 -8 -12 -10 3 -10 9 0 17 5 17 10 0 12 -1 12 -20 0z"/>
<path d="M8050 8705 c0 -18 5 -25 19 -25 11 0 23 -4 26 -10 8 -13 75 -13 75 0
0 16 -34 28 -63 23 -22 -4 -27 -2 -27 16 0 12 -6 21 -15 21 -9 0 -15 -9 -15
-25z"/>
<path d="M2882 8678 c5 -15 67 -18 70 -3 2 6 -14 11 -36 13 -28 3 -37 0 -34
-10z"/>
<path d="M3780 8682 c0 -5 7 -13 16 -16 10 -4 14 -1 12 6 -5 15 -28 23 -28 10z"/>
<path d="M7250 8680 c0 -5 12 -10 26 -10 14 0 23 4 19 10 -3 6 -15 10 -26 10
-10 0 -19 -4 -19 -10z"/>
<path d="M2810 8650 c-13 -8 -12 -10 3 -10 9 0 17 5 17 10 0 12 -1 12 -20 0z"/>
<path d="M8015 8650 c-3 -5 -1 -10 4 -10 6 0 11 5 11 10 0 6 -2 10 -4 10 -3 0
-8 -4 -11 -10z"/>
<path d="M2173 8594 c-3 -9 -6 -32 -7 -52 -1 -36 0 -37 39 -43 32 -4 36 -7 20
-13 -67 -25 -65 -24 -63 -67 1 -34 6 -42 26 -50 39 -15 56 -7 58 26 4 58 20
82 66 97 24 8 42 18 41 21 -2 4 -3 27 -3 52 l0 45 -85 0 c-69 0 -87 -3 -92
-16z m97 -64 c-6 -11 -15 -18 -20 -15 -13 8 0 35 16 35 12 0 12 -4 4 -20z"/>
<path d="M8368 8592 c-3 -9 -3 -34 0 -54 4 -36 6 -38 41 -38 20 0 43 6 50 13
10 10 14 8 22 -6 8 -14 18 -17 40 -12 42 9 36 -9 -8 -24 -21 -8 -41 -19 -45
-25 -5 -6 -8 0 -8 14 0 36 -16 11 -24 -37 -7 -47 3 -60 33 -42 15 10 22 9 36
-4 19 -20 21 -20 46 -7 15 9 19 22 19 65 0 48 3 55 19 55 24 0 37 18 23 32 -8
8 -16 7 -27 -2 -12 -10 -15 -10 -15 4 0 10 4 15 9 12 5 -3 12 1 15 10 4 12 2
15 -9 10 -11 -4 -15 1 -15 19 0 14 -3 25 -7 26 -5 1 -49 3 -99 5 -81 3 -92 2
-96 -14z"/>
<path d="M8671 8554 c-12 -14 -11 -16 4 -12 10 1 20 9 23 16 5 17 -10 15 -27
-4z"/>
<path d="M8650 8470 c0 -5 5 -10 10 -10 6 0 10 5 10 10 0 6 -4 10 -10 10 -5 0
-10 -4 -10 -10z"/>
<path d="M8640 8434 c0 -8 5 -12 10 -9 6 3 10 10 10 16 0 5 -4 9 -10 9 -5 0
-10 -7 -10 -16z"/>
<path d="M8234 8309 c-3 -5 -14 -9 -24 -9 -29 0 -37 -40 -11 -61 11 -9 21 -21
21 -26 1 -14 50 -44 68 -41 12 2 19 17 23 53 4 28 9 60 12 70 6 18 2 20 -38
21 -25 1 -48 -2 -51 -7z"/>
<path d="M2085 7890 c3 -5 8 -10 11 -10 2 0 4 5 4 10 0 6 -5 10 -11 10 -5 0
-7 -4 -4 -10z"/>
<path d="M2030 7706 c0 -9 30 -14 35 -6 4 6 -3 10 -14 10 -12 0 -21 -2 -21 -4z"/>
<path d="M8687 7703 c-4 -3 -7 -11 -7 -17 0 -6 5 -5 12 2 6 6 9 14 7 17 -3 3
-9 2 -12 -2z"/>
<path d="M2030 6840 c19 -13 30 -13 30 0 0 6 -10 10 -22 10 -19 0 -20 -2 -8
-10z"/>
<path d="M2090 6165 c-10 -12 -10 -15 4 -15 9 0 16 7 16 15 0 8 -2 15 -4 15
-2 0 -9 -7 -16 -15z"/>
<path d="M8700 6129 c0 -5 5 -7 10 -4 6 3 10 8 10 11 0 2 -4 4 -10 4 -5 0 -10
-5 -10 -11z"/>
<path d="M8695 5310 c-3 -5 -1 -10 4 -10 6 0 11 5 11 10 0 6 -2 10 -4 10 -3 0
-8 -4 -11 -10z"/>
<path d="M8700 5230 c0 -5 5 -10 11 -10 5 0 7 5 4 10 -3 6 -8 10 -11 10 -2 0
-4 -4 -4 -10z"/>
<path d="M2030 5110 c0 -5 7 -10 16 -10 8 0 12 5 9 10 -3 6 -10 10 -16 10 -5
0 -9 -4 -9 -10z"/>
<path d="M8676 5094 c-4 -9 -4 -19 -2 -21 8 -8 26 8 26 23 0 19 -16 18 -24 -2z"/>
<path d="M8596 5042 c-3 -6 -1 -14 5 -17 14 -9 20 -2 10 14 -6 8 -11 9 -15 3z"/>
<path d="M8640 4961 c0 -5 9 -7 20 -4 11 3 20 7 20 9 0 2 -9 4 -20 4 -11 0
-20 -4 -20 -9z"/>
<path d="M2900 7910 c0 -5 5 -10 11 -10 5 0 7 5 4 10 -3 6 -8 10 -11 10 -2 0
-4 -4 -4 -10z"/>
<path d="M4076 8057 c-14 -30 -26 -59 -26 -65 0 -19 -42 -135 -57 -159 -15
-22 -42 -123 -43 -155 0 -16 14 -18 160 -18 105 0 160 4 160 11 0 28 -146 439
-156 439 -6 0 -23 -24 -38 -53z"/>
<path d="M4335 7600 c-3 -5 -1 -10 4 -10 6 0 11 5 11 10 0 6 -2 10 -4 10 -3 0
-8 -4 -11 -10z"/>
<path d="M4380 7580 l-25 -20 23 0 c12 0 25 7 29 15 9 24 0 25 -27 5z"/>
<path d="M6710 8290 c0 -5 7 -10 15 -10 8 0 15 5 15 10 0 6 -7 10 -15 10 -8 0
-15 -4 -15 -10z"/>
<path d="M5313 8232 c-8 -5 -9 -13 -3 -22 11 -17 23 -8 18 14 -2 9 -8 12 -15
8z"/>
<path d="M5315 8180 c-3 -5 -1 -10 4 -10 6 0 11 5 11 10 0 6 -2 10 -4 10 -3 0
-8 -4 -11 -10z"/>
<path d="M5310 7862 c0 -12 19 -26 26 -19 2 2 -2 10 -11 17 -9 8 -15 8 -15 2z"/>
<path d="M5307 7804 c-13 -13 -7 -24 14 -24 11 0 19 5 17 12 -5 14 -22 21 -31
12z"/>
<path d="M5317 7404 c-4 -4 -7 -14 -7 -23 0 -11 3 -12 11 -4 6 6 10 16 7 23
-2 6 -7 8 -11 4z"/>
<path d="M7440 7521 c0 -12 28 -22 35 -12 3 5 -2 12 -11 15 -21 8 -24 8 -24
-3z"/>
<path d="M6969 7758 c-8 -28 -7 -49 3 -46 14 5 22 48 8 48 -6 0 -10 -1 -11 -2z"/>
<path d="M2675 6280 c4 -6 11 -8 16 -5 14 9 11 15 -7 15 -8 0 -12 -5 -9 -10z"/>
<path d="M7375 6364 c-22 -34 -14 -40 14 -10 12 13 18 27 13 30 -5 3 -17 -6
-27 -20z"/>
<path d="M7390 6320 c0 -5 5 -10 10 -10 6 0 10 5 10 10 0 6 -4 10 -10 10 -5 0
-10 -4 -10 -10z"/>
<path d="M7838 6113 c7 -3 16 -2 19 1 4 3 -2 6 -13 5 -11 0 -14 -3 -6 -6z"/>
<path d="M3906 7111 c-7 -11 22 -23 36 -15 6 4 5 10 -3 15 -18 11 -26 11 -33
0z"/>
<path d="M4004 7069 c-4 -8 -9 -98 -11 -201 -2 -141 0 -189 9 -195 16 -9 188
-11 188 -1 0 6 66 31 86 32 6 1 27 15 47 33 28 25 37 40 37 65 1 18 5 53 10
78 4 25 5 47 2 50 -4 3 -16 23 -28 45 -16 30 -35 47 -80 70 -51 26 -72 30
-155 33 -72 3 -99 0 -105 -9z"/>
<path d="M4310 6694 c0 -9 5 -14 12 -12 18 6 21 28 4 28 -9 0 -16 -7 -16 -16z"/>
<path d="M4246 6664 c-8 -21 -1 -28 18 -21 9 4 13 13 10 22 -8 20 -20 19 -28
-1z"/>
<path d="M4305 6660 c3 -5 8 -10 11 -10 2 0 4 5 4 10 0 6 -5 10 -11 10 -5 0
-7 -4 -4 -10z"/>
<path d="M3930 6380 c-8 -5 -12 -11 -9 -14 3 -3 14 1 25 9 21 16 8 20 -16 5z"/>
<path d="M3910 6275 c0 -8 9 -15 20 -15 24 0 27 15 4 24 -22 9 -24 8 -24 -9z"/>
<path d="M3825 6140 c3 -5 8 -10 11 -10 2 0 4 5 4 10 0 6 -5 10 -11 10 -5 0
-7 -4 -4 -10z"/>
<path d="M5260 7121 c0 -10 22 -31 32 -31 17 0 7 28 -12 33 -11 3 -20 2 -20
-2z"/>
<path d="M5640 7110 c0 -7 24 -20 36 -20 13 0 1 19 -16 23 -11 3 -20 2 -20 -3z"/>
<path d="M5126 6732 c-2 -4 4 -13 14 -20 15 -9 19 -8 24 4 3 9 6 18 6 20 0 7
-39 4 -44 -4z"/>
<path d="M5180 6690 c0 -5 5 -10 10 -10 6 0 10 5 10 10 0 6 -4 10 -10 10 -5 0
-10 -4 -10 -10z"/>
<path d="M5115 6670 c-7 -12 2 -30 16 -30 12 0 12 27 0 35 -5 3 -12 1 -16 -5z"/>
<path d="M5313 6143 c-16 -6 -17 -23 -2 -23 6 0 17 7 25 15 16 16 4 20 -23 8z"/>
<path d="M6514 7105 c4 -10 -4 -17 -27 -23 -27 -7 -32 -13 -35 -43 -2 -19 -10
-42 -19 -51 -8 -9 -12 -22 -8 -28 6 -9 9 -9 15 1 5 7 9 -59 9 -147 2 -192 -2
-186 119 -178 89 6 171 35 205 71 64 72 61 231 -7 299 -30 30 -140 74 -187 74
-10 0 -23 9 -29 20 -12 23 -45 28 -36 5z"/>
<path d="M6382 7000 c0 -42 12 -53 23 -20 5 17 -9 60 -20 60 -2 0 -3 -18 -3
-40z"/>
<path d="M6520 6580 c0 -5 7 -10 15 -10 8 0 15 5 15 10 0 6 -7 10 -15 10 -8 0
-15 -4 -15 -10z"/>
<path d="M6388 6169 c4 -27 6 -29 14 -14 7 12 6 21 -4 32 -13 12 -14 10 -10
-18z"/>
<path d="M8070 6332 c0 -12 19 -26 26 -19 2 2 -2 10 -11 17 -9 8 -15 8 -15 2z"/>
<path d="M1037 5790 c-6 -22 0 -25 22 -11 7 5 10 14 7 20 -11 17 -23 13 -29
-9z"/>
<path d="M1070 5760 c0 -5 5 -10 10 -10 6 0 10 5 10 10 0 6 -4 10 -10 10 -5 0
-10 -4 -10 -10z"/>
<path d="M957 5541 c-37 -39 -67 -77 -67 -85 0 -17 107 -136 122 -136 12 0 57
52 58 66 0 15 -46 45 -71 47 -16 1 -19 6 -14 24 4 19 0 25 -21 34 -19 7 -24
13 -17 20 8 8 20 6 41 -5 17 -9 38 -13 46 -10 11 4 16 1 16 -10 0 -20 16 -21
24 -1 3 8 12 15 21 15 25 0 17 27 -11 34 -25 7 -26 8 -9 26 12 13 14 20 6 20
-7 0 -19 7 -27 15 -9 8 -19 15 -23 15 -4 0 -37 -31 -74 -69z"/>
<path d="M1330 5555 c-17 -20 -95 -65 -114 -65 -9 0 -16 -4 -16 -9 0 -5 9 -7
19 -4 24 6 61 -13 61 -32 0 -8 5 -15 12 -15 6 0 20 -7 30 -17 17 -15 19 -15
38 2 16 14 20 31 20 75 0 70 -22 99 -50 65z"/>
<path d="M1086 5313 c-14 -15 -26 -32 -26 -37 0 -8 104 -113 177 -179 28 -25
34 -27 55 -15 13 7 24 13 24 13 1 0 5 10 8 22 6 17 0 29 -24 50 -18 15 -40 36
-50 47 -34 36 -95 93 -122 114 -14 11 -20 9 -42 -15z"/>
<path d="M8650 2845 c-12 -22 -11 -27 6 -40 25 -19 54 -19 54 1 0 11 -6 14
-20 9 -18 -6 -19 -3 -14 24 8 37 -7 41 -26 6z"/>
<path d="M2434 2742 c-6 -4 -14 -27 -17 -52 -4 -25 -9 -54 -12 -65 -5 -18 -1
-20 32 -19 21 1 43 2 48 4 6 1 19 3 30 4 38 2 30 47 -16 94 -44 44 -48 46 -65
34z"/>
<path d="M2050 2700 c0 -5 5 -10 10 -10 6 0 10 5 10 10 0 6 -4 10 -10 10 -5 0
-10 -4 -10 -10z"/>
<path d="M2585 2567 c-38 -5 -91 -10 -117 -10 -31 0 -48 -5 -48 -13 0 -7 -4
-14 -9 -16 -5 -1 -6 -21 -2 -43 l6 -40 85 3 c225 7 232 9 220 82 -6 42 -33 50
-135 37z"/>
<path d="M2177 2549 c-18 -11 -24 -73 -8 -97 10 -17 61 -6 79 16 10 14 12 13
12 -6 0 -13 6 -22 15 -22 11 0 15 12 15 46 0 45 -1 46 -26 40 -20 -5 -27 -3
-30 12 -6 20 -31 25 -57 11z"/>
<path d="M2205 2420 c-4 -6 -16 -8 -27 -4 -19 6 -21 3 -15 -36 3 -23 8 -44 11
-48 11 -11 177 -7 187 4 6 7 6 21 0 35 -9 26 -11 33 -11 49 0 13 -47 2 -75
-16 -27 -19 -35 -17 -35 6 0 21 -24 28 -35 10z"/>
<path d="M2525 2421 c-11 -5 -29 -7 -40 -4 -12 2 -33 -1 -48 -6 -22 -9 -27
-17 -27 -45 0 -22 6 -36 16 -40 22 -9 267 -7 280 2 17 11 25 41 18 68 -6 23
-11 25 -68 24 -33 0 -72 2 -86 4 -14 3 -34 1 -45 -3z"/>
<path d="M8188 2424 c-4 -3 -37 -6 -75 -6 -83 0 -100 -4 -113 -29 -8 -14 -6
-25 6 -44 15 -23 22 -25 94 -25 54 0 80 -4 83 -12 3 -10 9 -10 26 0 11 6 38
12 58 11 29 0 33 -2 18 -8 -11 -5 -26 -6 -33 -3 -10 3 -13 -2 -10 -19 2 -17
-2 -24 -17 -27 -11 -2 -25 -11 -32 -19 -7 -9 -17 -12 -25 -8 -7 4 -5 0 4 -11
17 -17 19 -17 63 14 25 18 52 32 59 32 15 0 27 47 20 77 -3 11 1 25 11 33 14
12 13 14 -7 28 -22 16 -119 28 -130 16z"/>
<path d="M7410 2299 c0 -5 -8 -9 -17 -9 -12 0 -14 -3 -6 -11 8 -8 18 -7 38 4
26 13 27 14 6 20 -11 3 -21 1 -21 -4z"/>
<path d="M7707 2278 c-6 -17 10 -58 23 -58 13 0 13 17 0 25 -6 4 -8 15 -5 26
7 21 -10 27 -18 7z"/>
<path d="M7915 2272 c-6 -4 -10 -22 -10 -39 0 -28 4 -33 23 -33 20 0 21 3 12
20 -6 11 -9 24 -6 28 7 12 -8 32 -19 24z"/>
<path d="M7675 2241 c-3 -5 -1 -12 4 -15 5 -3 11 1 15 9 6 16 -9 21 -19 6z"/>
<path d="M7820 2239 c0 -5 5 -7 10 -4 6 3 10 8 10 11 0 2 -4 4 -10 4 -5 0 -10
-5 -10 -11z"/>
<path d="M4587 1793 c-12 -11 -8 -43 6 -43 6 0 23 -3 37 -7 25 -6 25 -6 7 15
-11 11 -25 18 -33 15 -10 -4 -12 0 -8 11 6 17 2 21 -9 9z"/>
<path d="M4797 1543 c-13 -13 -7 -21 13 -16 11 3 17 9 14 14 -6 11 -18 12 -27
2z"/>
<path d="M6070 1533 c0 -5 8 -17 17 -28 14 -18 15 -18 9 -2 -3 10 -6 23 -6 28
0 5 -4 9 -10 9 -5 0 -10 -3 -10 -7z"/>
<path d="M4770 1500 c0 -5 7 -10 16 -10 8 0 12 5 9 10 -3 6 -10 10 -16 10 -5
0 -9 -4 -9 -10z"/>
<path d="M6080 1461 c0 -6 5 -13 10 -16 6 -3 10 1 10 9 0 9 -4 16 -10 16 -5 0
-10 -4 -10 -9z"/>
<path d="M4860 1440 c0 -5 5 -10 10 -10 6 0 10 5 10 10 0 6 -4 10 -10 10 -5 0
-10 -4 -10 -10z"/>
<path d="M5088 1418 c-32 -27 -27 -44 27 -98 32 -32 55 -64 57 -79 2 -19 8
-25 23 -24 12 1 26 -7 33 -17 7 -12 8 -20 2 -20 -5 0 -10 6 -10 13 -1 8 -5 6
-13 -4 -17 -22 -91 -18 -95 5 -4 20 -22 21 -22 2 0 -21 20 -32 89 -49 71 -18
85 -15 76 16 -6 21 -6 21 9 3 14 -18 16 -18 22 -2 4 10 17 22 30 27 32 12 31
46 -1 61 -13 6 -22 15 -19 20 9 13 -26 48 -47 48 -10 0 -26 11 -35 25 -15 23
-91 85 -104 85 -3 0 -13 -6 -22 -12z"/>
<path d="M4933 1381 c-3 -11 -12 -21 -21 -23 -14 -3 -14 -4 0 -16 14 -11 18
-8 32 19 19 38 19 39 5 39 -6 0 -13 -9 -16 -19z"/>
<path d="M5815 1300 c3 -5 13 -10 21 -10 12 0 18 -11 16 -31 -1 -4 8 -15 18
-24 24 -21 39 -13 19 11 -11 14 -10 17 4 25 28 16 20 32 -13 27 -17 -3 -33 -1
-36 4 -3 4 -12 8 -20 8 -8 0 -12 -4 -9 -10z"/>
<path d="M9090 6400 c0 -5 5 -10 10 -10 6 0 10 -7 10 -16 0 -11 5 -14 16 -10
9 3 25 6 35 6 12 0 17 4 14 11 -4 6 -13 8 -20 5 -7 -2 -21 2 -32 9 -22 17 -33
19 -33 5z"/>
<path d="M9465 6040 c3 -5 8 -10 11 -10 2 0 4 5 4 10 0 6 -5 10 -11 10 -5 0
-7 -4 -4 -10z"/>
<path d="M9555 5911 c-3 -5 -1 -12 5 -16 5 -3 10 1 10 9 0 18 -6 21 -15 7z"/>
<path d="M9560 5858 c1 -7 7 -24 14 -37 13 -24 14 -24 25 -4 9 18 7 23 -14 37
-18 12 -25 13 -25 4z"/>
<path d="M9740 5771 c0 -5 11 -8 25 -7 38 4 43 16 7 16 -18 0 -32 -4 -32 -9z"/>
<path d="M9652 5580 c-12 -16 -22 -35 -22 -42 0 -16 50 -48 75 -48 12 0 15 -5
10 -20 -5 -15 0 -26 17 -40 27 -23 7 -27 -31 -6 -14 8 -31 12 -38 9 -7 -3 -13
0 -13 6 0 6 5 11 10 11 6 0 10 5 10 10 0 16 -13 12 -47 -18 -37 -31 -42 -52
-13 -52 11 0 20 -7 20 -15 0 -8 -4 -15 -10 -15 -5 0 -2 -9 7 -20 26 -31 57
-24 96 19 30 33 38 37 48 25 13 -16 59 -19 59 -4 0 6 -14 13 -30 17 -31 6 -32
18 -3 18 9 0 18 6 21 14 3 8 0 11 -7 7 -16 -11 -13 5 5 26 16 17 14 21 -27 65
-84 93 -103 100 -137 53z"/>
<path d="M9331 5506 c-6 -7 -11 -25 -11 -40 0 -14 0 -38 0 -53 0 -14 8 -35 17
-45 16 -18 18 -17 47 11 17 17 51 39 75 50 l45 19 -35 4 c-25 2 -34 8 -33 21
1 11 -5 17 -21 17 -12 0 -28 7 -35 15 -15 19 -34 19 -49 1z"/>
<path d="M9875 5369 c-4 -6 -4 -13 -1 -16 8 -8 36 5 36 17 0 13 -27 13 -35 -1z"/>
<path d="M9440 4890 c0 -5 6 -10 14 -10 8 0 18 5 21 10 3 6 -3 10 -14 10 -12
0 -21 -4 -21 -10z"/>
<path d="M9160 4679 c0 -5 5 -7 10 -4 6 3 10 8 10 11 0 2 -4 4 -10 4 -5 0 -10
-5 -10 -11z"/>
<path d="M8833 4290 c0 -25 4 -30 20 -28 11 2 22 9 25 17 3 8 0 11 -6 7 -6 -3
-13 3 -17 14 -10 30 -22 24 -22 -10z"/>
<path d="M8653 3705 c-3 -9 -3 -18 -1 -21 3 -3 8 4 11 16 6 23 -1 27 -10 5z"/>
<path d="M8696 3584 c-4 -10 -1 -14 6 -12 15 5 23 28 10 28 -5 0 -13 -7 -16
-16z"/>
<path d="M5111 5836 c-9 -11 -8 -15 5 -20 22 -8 24 -8 24 8 0 21 -16 28 -29
12z"/>
<path d="M5513 5340 c0 -19 5 -30 14 -30 10 0 13 9 11 27 -4 37 -25 40 -25 3z"/>
<path d="M5120 5000 c0 -19 3 -21 12 -12 9 9 9 15 0 24 -9 9 -12 7 -12 -12z"/>
<path d="M4421 5979 c13 -25 30 -34 38 -20 4 7 16 9 27 5 18 -6 18 -6 2 11 -9
10 -30 19 -47 20 -26 1 -29 -1 -20 -16z"/>
<path d="M3945 5760 c-4 -6 -11 -7 -17 -4 -7 4 -8 2 -4 -5 6 -9 12 -9 24 1 10
7 19 14 21 15 2 2 -1 3 -7 3 -6 0 -14 -5 -17 -10z"/>
<path d="M3916 5545 c-3 -9 0 -15 9 -15 8 0 15 7 15 15 0 8 -4 15 -9 15 -5 0
-11 -7 -15 -15z"/>
<path d="M4247 5004 c-8 -8 1 -24 14 -24 5 0 9 7 9 15 0 15 -12 20 -23 9z"/>
<path d="M6325 5271 c-3 -5 -1 -12 5 -16 5 -3 10 1 10 9 0 18 -6 21 -15 7z"/>
<path d="M6365 5230 c-3 -5 -1 -10 4 -10 6 0 11 5 11 10 0 6 -2 10 -4 10 -3 0
-8 -4 -11 -10z"/>
<path d="M7710 5929 c0 -5 5 -7 10 -4 6 3 10 8 10 11 0 2 -4 4 -10 4 -5 0 -10
-5 -10 -11z"/>
<path d="M7744 5915 c-16 -13 -17 -16 -4 -24 11 -7 19 -6 30 4 21 22 0 39 -26
20z"/>
<path d="M2672 4616 c13 -14 28 -12 28 5 0 5 -9 9 -20 9 -17 0 -19 -2 -8 -14z"/>
<path d="M2648 4313 c7 -3 16 -2 19 1 4 3 -2 6 -13 5 -11 0 -14 -3 -6 -6z"/>
<path d="M2606 4294 c-4 -9 -4 -19 -2 -21 8 -8 26 8 26 23 0 19 -16 18 -24 -2z"/>
<path d="M3476 4294 c-4 -9 -4 -19 -1 -22 2 -3 7 3 11 12 4 9 4 19 1 22 -2 3
-7 -3 -11 -12z"/>
<path d="M3457 4213 c-4 -3 -7 -11 -7 -17 0 -6 5 -5 12 2 6 6 9 14 7 17 -3 3
-9 2 -12 -2z"/>
<path d="M2710 4080 c-12 -7 -12 -12 -3 -21 15 -15 26 -7 21 15 -2 11 -7 13
-18 6z"/>
<path d="M2715 4030 c3 -5 8 -10 11 -10 2 0 4 5 4 10 0 6 -5 10 -11 10 -5 0
-7 -4 -4 -10z"/>
<path d="M3025 3850 c3 -5 8 -10 11 -10 2 0 4 5 4 10 0 6 -5 10 -11 10 -5 0
-7 -4 -4 -10z"/>
<path d="M4050 4794 c-6 -14 -10 -111 -10 -215 l0 -189 26 -12 c41 -19 191 4
255 39 28 15 54 34 56 43 3 8 11 29 19 47 8 17 14 45 14 61 0 17 4 33 9 37 6
3 4 17 -5 33 -7 15 -14 36 -14 48 0 60 -153 134 -277 134 -59 0 -64 -2 -73
-26z"/>
<path d="M3923 3878 c-2 -16 0 -19 6 -10 5 8 11 13 15 13 12 -2 7 14 -6 17 -8
1 -14 -7 -15 -20z"/>
<path d="M5640 4699 c0 -5 5 -7 10 -4 6 3 10 8 10 11 0 2 -4 4 -10 4 -5 0 -10
-5 -10 -11z"/>
<path d="M5455 4400 c3 -5 10 -10 16 -10 5 0 9 5 9 10 0 6 -7 10 -16 10 -8 0
-12 -4 -9 -10z"/>
<path d="M5490 4401 c0 -5 11 -8 25 -7 33 1 33 16 0 16 -14 0 -25 -4 -25 -9z"/>
<path d="M6368 4814 c-13 -4 -17 -26 -23 -120 -4 -63 -5 -141 -3 -175 3 -45 1
-62 -9 -66 -22 -9 -16 -50 10 -57 34 -9 75 -7 82 4 3 6 21 10 39 10 49 0 135
29 181 60 52 36 69 83 63 174 -4 74 -21 99 -96 143 -37 22 -58 26 -135 29 -51
2 -99 1 -109 -2z"/>
<path d="M7666 4648 c-14 -40 -36 -102 -49 -138 -58 -154 -88 -242 -84 -246 2
-2 75 -5 163 -6 l159 -2 1 29 c1 17 -2 32 -6 35 -6 5 -23 51 -55 148 -8 23
-10 42 -5 42 6 0 10 5 10 11 0 5 -4 8 -9 4 -13 -7 -29 23 -47 88 -21 72 -35
107 -44 107 -5 0 -20 -33 -34 -72z"/>
<path d="M7890 4330 c0 -5 9 -10 21 -10 11 0 17 5 14 10 -3 6 -13 10 -21 10
-8 0 -14 -4 -14 -10z"/>
<path d="M4446 3651 c-4 -7 -5 -15 -2 -18 9 -9 19 4 14 18 -4 11 -6 11 -12 0z"/>
<path d="M3766 3481 c-3 -5 1 -12 10 -15 20 -8 29 -1 19 13 -8 13 -22 14 -29
2z"/>
<path d="M3805 2920 c-3 -5 3 -10 15 -10 12 0 18 5 15 10 -3 6 -10 10 -15 10
-5 0 -12 -4 -15 -10z"/>
<path d="M7547 3698 c-8 -29 -4 -32 11 -8 6 10 8 21 3 24 -5 3 -11 -4 -14 -16z"/>
<path d="M7920 3631 c0 -6 5 -13 10 -16 6 -3 10 1 10 9 0 9 -4 16 -10 16 -5 0
-10 -4 -10 -9z"/>
<path d="M7830 2739 c0 -18 2 -19 15 -9 15 12 12 30 -6 30 -5 0 -9 -10 -9 -21z"/>
<path d="M6540 3640 c0 -5 5 -10 10 -10 6 0 10 5 10 10 0 6 -4 10 -10 10 -5 0
-10 -4 -10 -10z"/>
<path d="M6500 3518 c-12 -35 -28 -76 -35 -93 -32 -77 -103 -290 -99 -297 7
-11 311 -10 318 0 10 17 -142 452 -158 452 -2 0 -13 -28 -26 -62z"/>
<path d="M6960 2757 c0 -19 16 -31 24 -18 3 5 -1 14 -9 21 -12 10 -15 10 -15
-3z"/>
<path d="M5266 2972 c-3 -6 1 -13 10 -16 23 -9 28 -2 10 13 -8 7 -17 8 -20 3z"/>
<path d="M5230 2786 c0 -8 -4 -16 -9 -18 -5 -2 -5 -13 1 -27 11 -31 30 -15 35
29 2 21 -1 30 -12 30 -8 0 -15 -6 -15 -14z"/>
<path d="M2795 3709 c-4 -6 -4 -13 -1 -16 8 -8 36 5 36 17 0 13 -27 13 -35 -1z"/>
<path d="M3190 2891 c0 -5 7 -12 16 -15 24 -9 28 -7 14 9 -14 17 -30 20 -30 6z"/>
<path d="M803 10788 c2 -8 20 -13 42 -13 22 0 40 5 43 13 2 8 -10 12 -43 12
-33 0 -45 -4 -42 -12z"/>
<path d="M9830 10790 c0 -23 80 -26 88 -2 2 8 -10 12 -42 12 -25 0 -46 -4 -46
-10z"/>
<path d="M9980 10786 c23 -22 64 -24 68 -3 3 14 -4 17 -39 17 -38 0 -41 -2
-29 -14z"/>
<path d="M10352 10788 c3 -8 28 -14 66 -16 51 -2 62 0 62 13 0 12 -13 15 -66
15 -48 0 -65 -3 -62 -12z"/>
<path d="M10572 10660 c2 -77 0 -140 -4 -140 -4 0 -4 -25 -1 -55 6 -60 11 -55
-57 -59 -25 -1 -25 -1 -27 98 -2 55 -5 101 -8 104 -2 2 -32 8 -67 12 -35 4
-71 10 -80 15 -11 4 -18 3 -18 -3 0 -6 9 -13 20 -17 17 -6 20 -17 22 -118 l3
-112 60 -3 c32 -2 64 -7 70 -12 6 -5 18 -2 29 6 11 8 28 14 38 14 20 0 19 89
20 -3585 1 -918 1 -1704 1 -1745 2 -188 1 -278 -2 -315 -4 -42 -3 -584 1 -645
2 -45 1 -275 -2 -320 -1 -19 -1 -162 0 -318 2 -201 -1 -287 -9 -295 -14 -14
-15 -30 -1 -22 7 4 10 -52 10 -159 0 -104 -4 -166 -10 -166 -5 0 -10 -7 -10
-15 0 -8 6 -15 13 -15 9 0 12 -63 10 -286 l-2 -286 -27 -29 c-19 -20 -23 -29
-13 -29 8 0 20 5 27 12 9 9 12 -24 12 -150 0 -101 -4 -162 -10 -162 -13 0 -13
-27 -1 -32 9 -3 12 -269 20 -1735 l1 -93 110 0 110 0 0 5400 0 5400 -116 0
-115 0 3 -140z"/>
<path d="M290 10720 c-36 -4 -45 -9 -45 -24 0 -13 12 -22 43 -31 23 -7 42 -9
42 -4 0 5 9 9 20 9 14 0 20 7 20 24 0 28 -17 33 -80 26z"/>
<path d="M420 10636 c0 -9 5 -16 10 -16 6 0 10 4 10 9 0 6 -4 13 -10 16 -5 3
-10 -1 -10 -9z"/>
<path d="M200 10480 c0 -5 5 -10 10 -10 6 0 10 5 10 10 0 6 -4 10 -10 10 -5 0
-10 -4 -10 -10z"/>
<path d="M205 10400 c3 -5 10 -10 16 -10 5 0 9 5 9 10 0 6 -7 10 -16 10 -8 0
-12 -4 -9 -10z"/>
<path d="M205 3670 c-3 -5 1 -10 10 -10 9 0 13 5 10 10 -3 6 -8 10 -10 10 -2
0 -7 -4 -10 -10z"/>
<path d="M10525 3520 c-3 -5 -1 -10 4 -10 6 0 11 5 11 10 0 6 -2 10 -4 10 -3
0 -8 -4 -11 -10z"/>
<path d="M190 2710 c19 -13 30 -13 30 0 0 6 -10 10 -22 10 -19 0 -20 -2 -8
-10z"/>
<path d="M200 1830 c0 -5 5 -10 11 -10 5 0 7 5 4 10 -3 6 -8 10 -11 10 -2 0
-4 -4 -4 -10z"/>
<path d="M200 1750 c0 -5 7 -10 16 -10 8 0 12 5 9 10 -3 6 -10 10 -16 10 -5 0
-9 -4 -9 -10z"/>
<path d="M285 260 l-40 -5 -3 -111 c-2 -103 -1 -112 19 -130 16 -14 23 -15 26
-6 3 6 19 12 36 11 27 0 29 -2 12 -9 -16 -7 -13 -9 17 -9 28 -1 40 4 48 19 13
25 5 41 -16 33 -11 -4 -15 0 -14 13 1 10 2 58 1 105 -1 97 -3 100 -86 89z"/>
</g>
</svg>
